<?xml version="1.0" standalone="no"?>
<!DOCTYPE svg PUBLIC "-//W3C//DTD SVG 1.1//EN" "http://www.w3.org/Graphics/SVG/1.1/DTD/svg11.dtd" >
<svg xmlns="http://www.w3.org/2000/svg">
<metadata></metadata>
<defs>
<font id="venus_risingregular" horiz-adv-x="1021" >
<font-face units-per-em="1000" ascent="772" descent="-228" />
<missing-glyph horiz-adv-x="367" />
<glyph unicode="&#x28;C&#x29;" horiz-adv-x="829" d="M380 167q-150 0 -150 152v101q0 151 150 151h205v-62h-205q-88 0 -88 -89v-101q0 -90 88 -90h205v-62h-205zM127 151q0 -89 89 -89h396q89 0 89 87v439q0 89 -89 89h-396q-89 0 -89 -89v-437zM216 0q-150 0 -150 151v437q0 151 150 151h396q151 0 151 -151v-439 q0 -149 -151 -149h-396z" />
<glyph unicode="&#x28;R&#x29;" horiz-adv-x="609" d="M249 502h98q21 0 21 22v30q0 23 -27 23h-92v-75zM202 351v275h139q75 0 75 -61v-48q0 -22 -13 -36t-40 -17l55 -113h-54l-48 107h-67v-107h-47zM121 375q0 -51 20 -76t68 -25h183q54 0 75 25.5t21 73.5v209q0 51 -21 76.5t-75 25.5h-171q-57 0 -78.5 -23.5t-21.5 -78.5 v-207zM216 220q-150 0 -150 151v217q0 151 150 151h176q151 0 151 -151v-219q0 -149 -151 -149h-176z" />
<glyph unicode="&#x28;P&#x29;" horiz-adv-x="829" d="M127 151q0 -89 89 -89h396q89 0 89 87v439q0 89 -89 89h-396q-89 0 -89 -89v-437zM216 0q-150 0 -150 151v437q0 151 150 151h396q151 0 151 -151v-439q0 -149 -151 -149h-396zM243 174v395h265q98 0 98 -80v-119q0 -80 -98 -80h-205v-116h-60zM303 348h205q37 0 37 27 v108q0 27 -37 27h-205v-162z" />
<glyph unicode="&#xd;" horiz-adv-x="442" />
<glyph unicode=" "  horiz-adv-x="367" />
<glyph unicode="&#x09;" horiz-adv-x="367" />
<glyph unicode="&#xa0;" horiz-adv-x="367" />
<glyph unicode="!" horiz-adv-x="282" d="M66 216v523h140v-523h-140zM142 -3q-33 0 -53.5 20.5t-20.5 52.5q0 33 20.5 53.5t53.5 20.5q32 0 53 -20.5t21 -53.5q0 -32 -21 -52.5t-53 -20.5z" />
<glyph unicode="&#x22;" horiz-adv-x="311" d="M191 536l-5 241h105l-5 -241h-95zM25 536l-5 241h105l-5 -241h-95z" />
<glyph unicode="#" horiz-adv-x="578" d="M98 0l28 184h-60v85h73l31 204h-66v84h78l28 182h101l-28 -182h73l28 182h101l-28 -182h55v-84h-68l-32 -204h63v-85h-76l-28 -184h-99l28 184h-75l-28 -184h-99zM238 269h73l33 204h-74z" />
<glyph unicode="$" horiz-adv-x="829" d="M74 95v105h513q57 0 57 53v10q0 58 -57 58h-364q-157 0 -157 133v35q0 81 34.5 119t122.5 38h156v93h84v-93h282v-104h-503q-57 0 -57 -57v-13q0 -56 57 -56h364q157 0 157 -120v-71q0 -130 -157 -130h-143v-95h-84v95h-305z" />
<glyph unicode="%" horiz-adv-x="934" d="M195 0l456 739h85l-457 -739h-84zM143 524q0 -43 50 -43h118q51 0 51 42v101q0 42 -51 42h-118q-50 0 -50 -42v-100zM199 408q-133 0 -133 110v111q0 110 133 110h105q134 0 134 -110v-112q0 -109 -134 -109h-105zM573 115q0 -43 50 -43h119q50 0 50 42v101q0 42 -50 42 h-119q-50 0 -50 -42v-100zM630 0q-133 0 -133 109v112q0 109 133 109h104q134 0 134 -109v-113q0 -108 -134 -108h-104z" />
<glyph unicode="&#x26;" horiz-adv-x="1101" d="M306 0q-68 0 -114.5 13t-75 38.5t-41.5 63t-13 86.5v337q0 49 13 86.5t41.5 63t75 38.5t114.5 13h454v-145h-455q-49 0 -71.5 -15.5t-22.5 -46.5v-58h847v-135h-156v-194h156v-145h-752zM211 207q0 -31 22.5 -46.5t71.5 -15.5h452v194h-546v-132z" />
<glyph unicode="'" horiz-adv-x="145" d="M25 536l-5 241h105l-5 -241h-95z" />
<glyph unicode="(" horiz-adv-x="346" d="M195 -83q-56 123 -81.5 233t-25.5 219t26 217.5t79 230.5h86q-58 -132 -86 -240t-28 -209t26.5 -210.5t88.5 -240.5h-85z" />
<glyph unicode=")" horiz-adv-x="339" d="M66 -83q61 132 88 241t27 210t-28 209t-86 240h86q53 -122 79 -230.5t26 -217.5t-25.5 -219t-81.5 -233h-85z" />
<glyph unicode="*" horiz-adv-x="580" d="M66 350l119 109l-38 156l140 -80l137 85l-33 -158l123 -104l-160 -18l-61 -149l-66 147z" />
<glyph unicode="+" horiz-adv-x="653" d="M274 111v209h-208v105h208v207h105v-207h208v-105h-208v-209h-105z" />
<glyph unicode="," horiz-adv-x="237" d="M71 -64l-5 241h105l-5 -241h-95z" />
<glyph unicode="-" horiz-adv-x="391" d="M20 320v105h351v-105h-351z" />
<glyph unicode="." horiz-adv-x="280" d="M140 -3q-33 0 -53.5 20.5t-20.5 52.5q0 33 20.5 53.5t53.5 20.5q32 0 53 -20.5t21 -53.5q0 -32 -21 -52.5t-53 -20.5z" />
<glyph unicode="/" horiz-adv-x="492" d="M20 0l332 739h120l-331 -739h-121z" />
<glyph unicode="0" horiz-adv-x="1035" d="M62 0zM306 0q-68 0 -114.5 13t-75 38.5t-41.5 63t-13 86.5v337q0 49 13 86.5t41.5 63t75 38.5t114.5 13h423q67 0 114 -13t75.5 -38.5t41.5 -63t13 -86.5v-337q0 -49 -13 -86.5t-41.5 -63t-75.5 -38.5t-114 -13h-423zM211 207q0 -31 22.5 -46.5t71.5 -15.5h425 q49 0 71.5 15.5t22.5 46.5v325q0 31 -22.5 46.5t-71.5 15.5h-425q-49 0 -71.5 -15.5t-22.5 -46.5v-325z" />
<glyph unicode="1" horiz-adv-x="453" d="M247 0v515q0 40 -29.5 59.5t-74.5 19.5h-104v145h103q56 0 102 -12.5t78.5 -37t50.5 -62.5t18 -89v-538h-144z" />
<glyph unicode="2" horiz-adv-x="1005" d="M66 0v337q0 72 56 112.5t168 40.5h449q34 0 46 7.5t12 25.5v44q0 14 -12 20.5t-45 6.5h-585v145h580q212 0 212 -142v-93q0 -159 -214 -159h-443q-79 0 -79 -59v-141h736v-145h-881z" />
<glyph unicode="3" horiz-adv-x="951" d="M46 0v145h608q45 0 67 10.5t22 42.5v70q0 23 -22.5 34t-64.5 11h-535v134h545q42 0 60 9.5t18 26.5v71q0 20 -21 30t-59 10h-614v145h609q118 0 173 -38.5t55 -116.5v-105q0 -40 -22 -63.5t-53 -34.5q34 -11 55.5 -35.5t21.5 -72.5v-119q0 -72 -56 -113t-174 -41h-613z " />
<glyph unicode="4" horiz-adv-x="992" d="M279 231q-58 0 -103.5 11t-77.5 37t-49 69.5t-17 108.5v282h145v-292q0 -46 23 -63.5t83 -17.5h445v218h145v-218h106v-135h-106v-231h-145v231h-449z" />
<glyph unicode="5" horiz-adv-x="1025" d="M58 0v145h667q51 0 75 17.5t24 47.5v140h-559q-46 0 -84 7.5t-65.5 27t-42.5 53t-15 85.5v216h910v-145h-765v-67q0 -23 15.5 -32.5t50.5 -9.5h700v-284q0 -59 -18 -97.5t-50 -61.5t-77.5 -32.5t-99.5 -9.5h-666z" />
<glyph unicode="6" horiz-adv-x="1023" d="M294 0q-65 0 -109.5 11.5t-71.5 33t-39 51.5t-12 68v388q0 97 55 142t161 45h564v-145h-564q-35 0 -53 -11.5t-18 -39.5v-51h527q68 0 114 -11.5t73.5 -35t39.5 -58.5t12 -83v-103q0 -49 -12 -86.5t-40.5 -63t-74.5 -38.5t-113 -13h-439zM207 207q0 -31 18.5 -46.5 t67.5 -15.5h441q49 0 71.5 15.5t22.5 46.5v99q0 29 -22.5 43t-71.5 14h-527v-156z" />
<glyph unicode="7" horiz-adv-x="976" d="M55 0l657 594h-672v145h823q20 0 35.5 -7.5t26 -20t16 -29t5.5 -33.5q0 -18 -7 -36t-21 -31l-642 -582h-221z" />
<glyph unicode="8" horiz-adv-x="1037" d="M292 0q-118 0 -174 41t-56 113v119q0 48 21.5 72.5t55.5 35.5q-31 11 -53 34.5t-22 63.5v105q0 78 55 116.5t173 38.5h453q118 0 173 -38.5t55 -116.5v-105q0 -40 -22 -63.5t-53 -34.5q34 -11 55.5 -35.5t21.5 -72.5v-119q0 -72 -56 -113t-174 -41h-453zM207 483 q0 -17 18 -26.5t60 -9.5h467q42 0 60 9.5t18 26.5v71q0 20 -21 30t-59 10h-463q-38 0 -59 -10t-21 -30v-71zM208 208q0 -63 89 -63h443q89 0 89 63v60q0 23 -22.5 34t-64.5 11h-447q-42 0 -64.5 -11t-22.5 -34v-60z" />
<glyph unicode="9" horiz-adv-x="1026" d="M184 0v145h564q35 0 53 11.5t18 39.5v59h-527q-68 0 -114 11.5t-73.5 35t-39.5 58.5t-12 83v95q0 49 12 86.5t40.5 63t74 38.5t113.5 13h439q65 0 109.5 -11.5t71.5 -33t39 -52t12 -67.5v-388q0 -97 -55 -142t-161 -45h-564zM198 441q0 -29 22.5 -43t71.5 -14h527v148 q0 31 -18.5 46.5t-67.5 15.5h-441q-49 0 -71.5 -15.5t-22.5 -46.5v-91z" />
<glyph unicode=":" horiz-adv-x="280" d="M87 458q-21 21 -21 53q0 33 21 53.5t53 20.5q33 0 53.5 -20.5t20.5 -53.5q0 -32 -20.5 -52.5t-53.5 -20.5q-30 0 -53 20zM87 130q-21 21 -21 53q0 33 21 53.5t53 20.5q33 0 53.5 -20.5t20.5 -53.5q0 -32 -20.5 -52.5t-53.5 -20.5q-30 0 -53 20z" />
<glyph unicode=";" horiz-adv-x="281" d="M87 397q-21 21 -21 53q0 33 21 53.5t54 20.5q32 0 53 -20.5t21 -53.5q0 -32 -20.5 -52.5t-54.5 -20.5q-30 0 -53 20zM93 -64v241h95v-241h-95z" />
<glyph unicode="&#x3c;" horiz-adv-x="568" d="M105 300q-20 12 -29.5 30t-9.5 38q0 21 10 40t29 30l397 236v-153l-283 -152l283 -152v-153z" />
<glyph unicode="=" horiz-adv-x="653" d="M66 420v105h521v-105h-521zM66 220v105h521v-105h-521z" />
<glyph unicode="&#x3e;" horiz-adv-x="568" d="M66 64v153l283 152l-283 152v153l397 -236q19 -11 29 -30t10 -40q0 -20 -9.5 -38t-29.5 -30z" />
<glyph unicode="?" horiz-adv-x="983" d="M87 17q-21 21 -21 53q0 33 21 53.5t54 20.5q32 0 53 -20.5t21 -53.5q0 -32 -21 -52.5t-53 -20.5q-31 0 -54 20zM75 217v120q0 72 56 112.5t168 40.5h459q34 0 46 7.5t12 25.5v44q0 14 -12 20.5t-45 6.5h-692v145h687q212 0 212 -142v-93q0 -159 -214 -159h-467 q-79 0 -79 -59v-69h-131z" />
<glyph unicode="@" horiz-adv-x="956" d="M286 0q-224 0 -224 182v375q0 182 224 182h400q106 0 157 -46.5t51 -149.5v-183q0 -148 -208 -148h-255q-143 0 -143 124v53q0 120 143 120h359v38q0 31 -9 48.5t-24 26.5t-35.5 11.5t-42.5 2.5h-407q-49 0 -74.5 -22.5t-25.5 -62.5v-363q0 -32 12.5 -49t34.5 -25 t52.5 -9.5t66.5 -1.5h547v-103h-599zM398 361q0 -53 61 -53h217q57 0 85.5 10.5t28.5 50.5v60h-331q-61 0 -61 -56v-12z" />
<glyph unicode="A" horiz-adv-x="1039" d="M64 0v488q0 121 70.5 186t214.5 65h341q144 0 214.5 -65t70.5 -186v-488h-145v236h-621v-236h-145zM209 371h621v117q0 27 -6.5 46.5t-23 33t-43.5 20t-68 6.5h-339q-41 0 -68 -6.5t-43.5 -20t-23 -33t-6.5 -46.5v-117z" />
<glyph unicode="B" horiz-adv-x="1038" d="M66 0v739h680q118 0 173 -38.5t55 -116.5v-105q0 -40 -22 -63.5t-53 -34.5q34 -11 55.5 -35.5t21.5 -72.5v-119q0 -72 -56 -113t-174 -41h-680zM211 145h530q45 0 67 10.5t22 42.5v70q0 23 -22.5 34t-64.5 11h-532v-168zM211 447h542q42 0 60 9.5t18 26.5v71q0 20 -21 30 t-59 10h-540v-147z" />
<glyph unicode="C" horiz-adv-x="1016" d="M306 0q-68 0 -114.5 13t-75 38.5t-41.5 63t-13 86.5v337q0 49 13 86.5t41.5 63t75 38.5t114.5 13h665v-145h-666q-49 0 -71.5 -15.5t-22.5 -46.5v-325q0 -31 22.5 -46.5t71.5 -15.5h668v-145h-667z" />
<glyph unicode="D" horiz-adv-x="1038" d="M66 0v739h666q67 0 114 -13t75.5 -38.5t41.5 -63t13 -86.5v-337q0 -49 -13 -86.5t-41.5 -63t-75.5 -38.5t-114 -13h-666zM211 145h522q49 0 71.5 15.5t22.5 46.5v325q0 31 -22.5 46.5t-71.5 15.5h-522v-449z" />
<glyph unicode="E" d="M66 0v739h909v-145h-764v-97h625v-135h-625v-217h766v-145h-911z" />
<glyph unicode="F" horiz-adv-x="987" d="M66 0v739h911v-145h-766v-97h587v-135h-587v-362h-145z" />
<glyph unicode="G" horiz-adv-x="1028" d="M306 0q-68 0 -114.5 13t-75 38.5t-41.5 63t-13 86.5v337q0 49 13 86.5t41.5 63t75 38.5t114.5 13h665v-145h-666q-49 0 -71.5 -15.5t-22.5 -46.5v-325q0 -31 22.5 -46.5t71.5 -15.5h523v217h-492v135h564q30 0 51.5 -21.5t21.5 -51.5v-424h-667z" />
<glyph unicode="H" horiz-adv-x="1044" d="M66 0v739h145v-237h622v237h145v-739h-145v367h-622v-367h-145z" />
<glyph unicode="I" horiz-adv-x="293" d="M74 0v739h145v-739h-145z" />
<glyph unicode="J" horiz-adv-x="740" d="M12 0v145h415q49 0 71.5 15.5t22.5 46.5v532h149v-538q0 -49 -13 -86.5t-41.5 -63t-75.5 -38.5t-114 -13h-414z" />
<glyph unicode="K" horiz-adv-x="1014" d="M66 0v739h145v-278h88l449 278h276l-579 -342l614 -397h-268l-492 333h-88v-333h-145z" />
<glyph unicode="L" horiz-adv-x="751" d="M66 0v739h145v-594h515v-145h-660z" />
<glyph unicode="M" horiz-adv-x="1422" d="M66 0v679q0 35 21 52.5t48 17.5q17 0 34 -6t31 -21l511 -558l511 558q13 14 30.5 20.5t34.5 6.5q27 0 48 -17.5t21 -52.5v-679h-145v501l-448 -490q-21 -22 -52 -22t-52 22l-448 490v-501h-145z" />
<glyph unicode="N" horiz-adv-x="1043" d="M66 0v675q0 35 20.5 54.5t47.5 19.5q12 0 25 -4t24 -13l649 -524v531h145v-676q0 -35 -20.5 -54.5t-47.5 -19.5q-12 0 -25 4t-24 13l-649 524v-530h-145z" />
<glyph unicode="O" horiz-adv-x="1035" d="M306 0q-68 0 -114.5 13t-75 38.5t-41.5 63t-13 86.5v337q0 49 13 86.5t41.5 63t75 38.5t114.5 13h423q67 0 114 -13t75.5 -38.5t41.5 -63t13 -86.5v-337q0 -49 -13 -86.5t-41.5 -63t-75.5 -38.5t-114 -13h-423zM211 207q0 -31 22.5 -46.5t71.5 -15.5h425q49 0 71.5 15.5 t22.5 46.5v325q0 31 -22.5 46.5t-71.5 15.5h-425q-49 0 -71.5 -15.5t-22.5 -46.5v-325z" />
<glyph unicode="P" horiz-adv-x="1002" d="M66 0v739h667q67 0 114 -13t75.5 -38.5t41.5 -63t13 -86.5v-96q0 -49 -13 -86.5t-41.5 -63t-75.5 -38.5t-114 -13h-522v-241h-145zM211 376h523q49 0 71.5 15.5t22.5 46.5v94q0 31 -22.5 46.5t-71.5 15.5h-523v-218z" />
<glyph unicode="Q" horiz-adv-x="1062" d="M306 0q-68 0 -114.5 13t-75 38.5t-41.5 63t-13 86.5v337q0 49 13 86.5t41.5 63t75 38.5t114.5 13h423q67 0 114 -13t75.5 -38.5t41.5 -63t13 -86.5v-242h9q73 0 73 -72v-147q0 -77 -73 -77h-676zM211 207q0 -31 22.5 -46.5t71.5 -15.5h600q18 0 18 20t-18 20h-21 q-60 0 -60 63v284q0 31 -22.5 46.5t-71.5 15.5h-425q-49 0 -71.5 -15.5t-22.5 -46.5v-325z" />
<glyph unicode="R" horiz-adv-x="1008" d="M66 0v739h667q67 0 114 -13t75.5 -38.5t41.5 -63t13 -86.5v-73q0 -49 -13 -86.5t-41.5 -63t-75.5 -38.5t-114 -13h-112l378 -264h-260l-350 264h-178v-264h-145zM211 394h523q49 0 71.5 15.5t22.5 46.5v76q0 31 -22.5 46.5t-71.5 15.5h-523v-200z" />
<glyph unicode="S" horiz-adv-x="1005" d="M62 0v145h640q49 0 71.5 15.5t22.5 46.5v76q0 31 -22.5 46.5t-71.5 15.5h-426q-214 0 -214 159v93q0 142 212 142h641v-145h-646q-33 0 -45 -6.5t-12 -20.5v-44q0 -18 12 -25.5t46 -7.5h431q67 0 114 -13t75.5 -38.5t41.5 -63t13 -86.5v-88q0 -49 -13 -86.5t-41.5 -63 t-75.5 -38.5t-114 -13h-639z" />
<glyph unicode="T" horiz-adv-x="933" d="M392 0v594h-383v145h911v-145h-383v-594h-145z" />
<glyph unicode="U" horiz-adv-x="1034" d="M308 0q-68 0 -114.5 13t-75 38.5t-41.5 63t-13 86.5v538h149v-532q0 -31 22.5 -46.5t71.5 -15.5h420q49 0 71.5 15.5t22.5 46.5v532h149v-538q0 -49 -13 -86.5t-41.5 -63t-75.5 -38.5t-114 -13h-418z" />
<glyph unicode="V" horiz-adv-x="1058" d="M604 31q-14 -22 -34.5 -32t-40.5 -10t-40.5 10t-34.5 32l-454 708h175l354 -565l354 565h175z" />
<glyph unicode="W" horiz-adv-x="1467" d="M308 0q-68 0 -114.5 13t-75 38.5t-41.5 63t-13 86.5v538h149v-532q0 -31 22.5 -46.5t71.5 -15.5h355v594h145v-594h353q49 0 71.5 15.5t22.5 46.5v532h149v-538q0 -49 -13 -86.5t-41.5 -63t-75.5 -38.5t-114 -13h-851z" />
<glyph unicode="X" horiz-adv-x="1262" d="M24 0l494 370l-493 369h236l366 -280l367 280h236l-489 -366l499 -373h-235l-373 284l-372 -284h-236z" />
<glyph unicode="Y" horiz-adv-x="1041" d="M213 0v145h521q49 0 71.5 15.5t22.5 46.5v34h-518q-68 0 -114.5 13t-75 38.5t-41.5 63t-13 86.5v297h149v-301q0 -31 22.5 -46.5t71.5 -15.5h519v363h149v-538q0 -49 -13 -86.5t-41.5 -63t-75.5 -38.5t-114 -13h-520z" />
<glyph unicode="Z" horiz-adv-x="1023" d="M123 0q-38 0 -58 22.5t-20 51.5q0 19 9 36.5t26 30.5l616 453h-639v145h840q38 0 57.5 -23t19.5 -52q0 -18 -8.5 -35.5t-25.5 -30.5l-616 -453h645v-145h-846z" />
<glyph unicode="[" horiz-adv-x="306" d="M66 -83v900h174v-92h-83v-719h83v-89h-174z" />
<glyph unicode="\" horiz-adv-x="492" d="M351 0l-331 739h120l332 -739h-121z" />
<glyph unicode="]" horiz-adv-x="306" d="M66 -83v89h83v719h-83v92h174v-900h-174z" />
<glyph unicode="^" horiz-adv-x="600" d="M66 414l181 305q9 15 23 22.5t29 7.5t30 -8t24 -22l181 -305h-117l-117 218l-117 -218h-117z" />
<glyph unicode="_" horiz-adv-x="803" d="M0 -191v95h805v-95h-805z" />
<glyph unicode="`" horiz-adv-x="423" d="M66 838v86l291 -65v-65z" />
<glyph unicode="a" horiz-adv-x="1039" d="M64 0zM64 0v488q0 121 70.5 186t214.5 65h341q144 0 214.5 -65t70.5 -186v-488h-145v236h-621v-236h-145zM209 371h621v117q0 27 -6.5 46.5t-23 33t-43.5 20t-68 6.5h-339q-41 0 -68 -6.5t-43.5 -20t-23 -33t-6.5 -46.5v-117z" />
<glyph unicode="b" horiz-adv-x="1038" d="M66 0zM66 0v739h680q118 0 173 -38.5t55 -116.5v-105q0 -40 -22 -63.5t-53 -34.5q34 -11 55.5 -35.5t21.5 -72.5v-119q0 -72 -56 -113t-174 -41h-680zM211 145h530q45 0 67 10.5t22 42.5v70q0 23 -22.5 34t-64.5 11h-532v-168zM211 447h542q42 0 60 9.5t18 26.5v71 q0 20 -21 30t-59 10h-540v-147z" />
<glyph unicode="c" horiz-adv-x="1016" d="M62 0zM306 0q-68 0 -114.5 13t-75 38.5t-41.5 63t-13 86.5v337q0 49 13 86.5t41.5 63t75 38.5t114.5 13h665v-145h-666q-49 0 -71.5 -15.5t-22.5 -46.5v-325q0 -31 22.5 -46.5t71.5 -15.5h668v-145h-667z" />
<glyph unicode="d" horiz-adv-x="1038" d="M66 0zM66 0v739h666q67 0 114 -13t75.5 -38.5t41.5 -63t13 -86.5v-337q0 -49 -13 -86.5t-41.5 -63t-75.5 -38.5t-114 -13h-666zM211 145h522q49 0 71.5 15.5t22.5 46.5v325q0 31 -22.5 46.5t-71.5 15.5h-522v-449z" />
<glyph unicode="e" d="M66 0zM66 0v739h909v-145h-764v-97h625v-135h-625v-217h766v-145h-911z" />
<glyph unicode="f" horiz-adv-x="987" d="M66 0zM66 0v739h911v-145h-766v-97h587v-135h-587v-362h-145z" />
<glyph unicode="g" horiz-adv-x="1028" d="M62 0zM306 0q-68 0 -114.5 13t-75 38.5t-41.5 63t-13 86.5v337q0 49 13 86.5t41.5 63t75 38.5t114.5 13h665v-145h-666q-49 0 -71.5 -15.5t-22.5 -46.5v-325q0 -31 22.5 -46.5t71.5 -15.5h523v217h-492v135h564q30 0 51.5 -21.5t21.5 -51.5v-424h-667z" />
<glyph unicode="h" horiz-adv-x="1044" d="M66 0zM66 0v739h145v-237h622v237h145v-739h-145v367h-622v-367h-145z" />
<glyph unicode="i" horiz-adv-x="293" d="M74 0zM74 0v739h145v-739h-145z" />
<glyph unicode="j" horiz-adv-x="740" d="M12 0zM12 0v145h415q49 0 71.5 15.5t22.5 46.5v532h149v-538q0 -49 -13 -86.5t-41.5 -63t-75.5 -38.5t-114 -13h-414z" />
<glyph unicode="k" horiz-adv-x="1014" d="M66 0zM66 0v739h145v-278h88l449 278h276l-579 -342l614 -397h-268l-492 333h-88v-333h-145z" />
<glyph unicode="l" horiz-adv-x="751" d="M66 0zM66 0v739h145v-594h515v-145h-660z" />
<glyph unicode="m" horiz-adv-x="1422" d="M66 0zM66 0v679q0 35 21 52.5t48 17.5q17 0 34 -6t31 -21l511 -558l511 558q13 14 30.5 20.5t34.5 6.5q27 0 48 -17.5t21 -52.5v-679h-145v501l-448 -490q-21 -22 -52 -22t-52 22l-448 490v-501h-145z" />
<glyph unicode="n" horiz-adv-x="1043" d="M66 0zM66 0v675q0 35 20.5 54.5t47.5 19.5q12 0 25 -4t24 -13l649 -524v531h145v-676q0 -35 -20.5 -54.5t-47.5 -19.5q-12 0 -25 4t-24 13l-649 524v-530h-145z" />
<glyph unicode="o" horiz-adv-x="1035" d="M62 0zM306 0q-68 0 -114.5 13t-75 38.5t-41.5 63t-13 86.5v337q0 49 13 86.5t41.5 63t75 38.5t114.5 13h423q67 0 114 -13t75.5 -38.5t41.5 -63t13 -86.5v-337q0 -49 -13 -86.5t-41.5 -63t-75.5 -38.5t-114 -13h-423zM211 207q0 -31 22.5 -46.5t71.5 -15.5h425 q49 0 71.5 15.5t22.5 46.5v325q0 31 -22.5 46.5t-71.5 15.5h-425q-49 0 -71.5 -15.5t-22.5 -46.5v-325z" />
<glyph unicode="p" horiz-adv-x="1002" d="M66 0zM66 0v739h667q67 0 114 -13t75.5 -38.5t41.5 -63t13 -86.5v-96q0 -49 -13 -86.5t-41.5 -63t-75.5 -38.5t-114 -13h-522v-241h-145zM211 376h523q49 0 71.5 15.5t22.5 46.5v94q0 31 -22.5 46.5t-71.5 15.5h-523v-218z" />
<glyph unicode="q" horiz-adv-x="1062" d="M62 0zM306 0q-68 0 -114.5 13t-75 38.5t-41.5 63t-13 86.5v337q0 49 13 86.5t41.5 63t75 38.5t114.5 13h423q67 0 114 -13t75.5 -38.5t41.5 -63t13 -86.5v-242h9q73 0 73 -72v-147q0 -77 -73 -77h-676zM211 207q0 -31 22.5 -46.5t71.5 -15.5h600q18 0 18 20t-18 20h-21 q-60 0 -60 63v284q0 31 -22.5 46.5t-71.5 15.5h-425q-49 0 -71.5 -15.5t-22.5 -46.5v-325z" />
<glyph unicode="r" horiz-adv-x="1008" d="M66 0zM66 0v739h667q67 0 114 -13t75.5 -38.5t41.5 -63t13 -86.5v-73q0 -49 -13 -86.5t-41.5 -63t-75.5 -38.5t-114 -13h-112l378 -264h-260l-350 264h-178v-264h-145zM211 394h523q49 0 71.5 15.5t22.5 46.5v76q0 31 -22.5 46.5t-71.5 15.5h-523v-200z" />
<glyph unicode="s" horiz-adv-x="1005" d="M62 0zM62 0v145h640q49 0 71.5 15.5t22.5 46.5v76q0 31 -22.5 46.5t-71.5 15.5h-426q-214 0 -214 159v93q0 142 212 142h641v-145h-646q-33 0 -45 -6.5t-12 -20.5v-44q0 -18 12 -25.5t46 -7.5h431q67 0 114 -13t75.5 -38.5t41.5 -63t13 -86.5v-88q0 -49 -13 -86.5 t-41.5 -63t-75.5 -38.5t-114 -13h-639z" />
<glyph unicode="t" horiz-adv-x="933" d="M9 0zM392 0v594h-383v145h911v-145h-383v-594h-145z" />
<glyph unicode="u" horiz-adv-x="1034" d="M64 0zM308 0q-68 0 -114.5 13t-75 38.5t-41.5 63t-13 86.5v538h149v-532q0 -31 22.5 -46.5t71.5 -15.5h420q49 0 71.5 15.5t22.5 46.5v532h149v-538q0 -49 -13 -86.5t-41.5 -63t-75.5 -38.5t-114 -13h-418z" />
<glyph unicode="v" horiz-adv-x="1058" d="M0 0zM604 31q-14 -22 -34.5 -32t-40.5 -10t-40.5 10t-34.5 32l-454 708h175l354 -565l354 565h175z" />
<glyph unicode="w" horiz-adv-x="1467" d="M64 0zM308 0q-68 0 -114.5 13t-75 38.5t-41.5 63t-13 86.5v538h149v-532q0 -31 22.5 -46.5t71.5 -15.5h355v594h145v-594h353q49 0 71.5 15.5t22.5 46.5v532h149v-538q0 -49 -13 -86.5t-41.5 -63t-75.5 -38.5t-114 -13h-851z" />
<glyph unicode="x" horiz-adv-x="1262" d="M24 0zM24 0l494 370l-493 369h236l366 -280l367 280h236l-489 -366l499 -373h-235l-373 284l-372 -284h-236z" />
<glyph unicode="y" horiz-adv-x="1041" d="M66 0zM213 0v145h521q49 0 71.5 15.5t22.5 46.5v34h-518q-68 0 -114.5 13t-75 38.5t-41.5 63t-13 86.5v297h149v-301q0 -31 22.5 -46.5t71.5 -15.5h519v363h149v-538q0 -49 -13 -86.5t-41.5 -63t-75.5 -38.5t-114 -13h-520z" />
<glyph unicode="z" horiz-adv-x="1023" d="M45 0zM123 0q-38 0 -58 22.5t-20 51.5q0 19 9 36.5t26 30.5l616 453h-639v145h840q38 0 57.5 -23t19.5 -52q0 -18 -8.5 -35.5t-25.5 -30.5l-616 -453h645v-145h-846z" />
<glyph unicode="{" horiz-adv-x="351" d="M256 -83q-66 0 -96 28t-30 94v239q0 20 -17 33.5t-47 14.5v78q64 4 64 48v242q0 67 30 95t96 28h29v-92q-22 0 -35 -3t-19.5 -11t-8.5 -22t-2 -35v-195q0 -35 -14.5 -59.5t-41.5 -34.5q29 -10 42.5 -34t13.5 -60v-192q0 -20 1 -33t7.5 -21.5t19.5 -12.5t37 -5v-90h-29z " />
<glyph unicode="|" horiz-adv-x="215" d="M66 -82v899h83v-899h-83z" />
<glyph unicode="}" horiz-adv-x="351" d="M66 -83v90q13 0 24.5 2t20.5 9t14 20t5 35v198q0 74 56 94q-56 21 -56 94v201q0 18 -2 30.5t-8.5 20t-19 11t-34.5 3.5v92h28q66 0 96.5 -27.5t30.5 -95.5v-242q0 -21 16.5 -34t47.5 -14v-78q-64 -1 -64 -48v-239q0 -67 -30.5 -94.5t-96.5 -27.5h-28z" />
<glyph unicode="~" horiz-adv-x="561" d="M66 400q62 68 126 68q30 0 53 -8t42.5 -18t37 -18t37.5 -8q14 0 29 10.5t30 33.5l74 -82q-59 -69 -129 -69q-26 0 -47 8t-40 17.5t-36.5 17.5t-35.5 8t-34 -8.5t-33 -35.5z" />
<glyph unicode="&#xa1;" horiz-adv-x="282" d="M66 0zM216.004 523.014v-522.969h-139.991v522.969h139.991zM140.009 742q32.998 0 53.4971 -20.499q20.498 -20.499 20.498 -52.4971q0 -32.998 -20.498 -53.4961q-20.499 -20.499 -53.4971 -20.499q-31.998 0 -52.9971 20.499q-20.998 20.498 -20.998 53.4961 q0 31.998 20.998 52.4971q20.999 20.499 52.9971 20.499z" />
<glyph unicode="&#xa2;" horiz-adv-x="774" d="M290 90q-224 0 -224 182v185q0 183 224 183h104v99h84v-99h227v-132h-389q-24 0 -44.5 -3t-35.5 -10.5t-23.5 -21.5t-8.5 -36v-145q0 -23 8.5 -37t23.5 -21.5t35.5 -10t44.5 -2.5h392v-131h-230v-90h-84v90h-104z" />
<glyph unicode="&#xa3;" horiz-adv-x="989" d="M118 0v319h-52v111h52v127q0 182 223 182h582v-131h-582q-42 0 -63.5 -17t-21.5 -48v-113h483v-111h-483v-188h667v-131h-805z" />
<glyph unicode="&#xa5;" horiz-adv-x="1110" d="M148 282v105h252l-334 352h160l315 -352h29l314 352h160l-332 -352h248v-105h-333v-282h-139v282h-340z" />
<glyph unicode="&#xa6;" horiz-adv-x="215" d="M66 449v368h83v-368h-83zM66 -82v344h83v-344h-83z" />
<glyph unicode="&#xa7;" horiz-adv-x="732" d="M81 0v104h411q62 0 62 43v22q0 40 -62 40h-203q-49 0 -90 5.5t-70.5 20.5t-46 42t-16.5 71q0 49 15.5 80.5t52.5 47.5q-68 24 -68 111q0 83 50.5 117.5t157.5 34.5h362v-105h-394q-64 0 -64 -41v-15q0 -48 64 -48h233q91 0 138 -32t47 -107q0 -48 -15.5 -80t-50.5 -50 q35 -9 53.5 -37.5t18.5 -73.5q0 -82 -49.5 -116t-157.5 -34h-378zM178 360q0 -47 61 -47h236q37 0 55 11t18 38v15q0 48 -58 48h-250q-62 0 -62 -48v-17z" />
<glyph unicode="&#xa8;" horiz-adv-x="443" d="M283 812v124h94v-124h-94zM66 812v124h95v-124h-95z" />
<glyph unicode="&#xaa;" horiz-adv-x="662" d="M176 316q-110 0 -110 97v60q0 97 110 97h314v32q0 51 -63 51h-353v86h362q160 0 160 -130v-174q0 -119 -160 -119h-260zM173 442q0 -41 46 -41h181q40 0 65 8.5t25 43.5v44h-271q-46 0 -46 -42v-13z" />
<glyph unicode="&#xab;" horiz-adv-x="597" d="M333 327q-12 7 -17.5 18.5t-5.5 23.5t6 23.5t17 18.5l244 145v-94l-173 -93l173 -94v-93zM43 327q-12 7 -17.5 18.5t-5.5 23.5t6 23.5t17 18.5l244 145v-94l-173 -93l173 -94v-93z" />
<glyph unicode="&#xac;" horiz-adv-x="653" d="M482 0v320h-416v105h521v-425h-105z" />
<glyph unicode="&#xaf;" horiz-adv-x="423" d="M66 826v71h291v-71h-291z" />
<glyph unicode="&#xb0;" horiz-adv-x="432" d="M127 590q0 -90 89 -90t89 88q0 90 -89 90t-89 -88zM216 438q-150 0 -150 152q0 150 150 150t150 -150q0 -152 -150 -152z" />
<glyph unicode="&#xb1;" horiz-adv-x="653" d="M66 1zM274 216v209h-208v105h208v207h105v-207h208v-105h-208v-209h-105zM66 1v105h521v-105h-521z" />
<glyph unicode="&#xb2;" horiz-adv-x="583" d="M48 331zM48 331v187q0 42 31.5 64.5t94.5 22.5h241q14 0 19.5 2.5t5.5 10.5v24q0 4 -5 6t-19 2h-321v89h318q120 0 120 -82v-50q0 -90 -121 -90h-238q-37 0 -37 -27v-69h396v-90h-485z" />
<glyph unicode="&#xb3;" horiz-adv-x="553" d="M37 331zM37 331v90h333q21 0 31.5 4t10.5 18v37q0 19 -41 19h-293v84h297q20 0 28.5 3.5t8.5 10.5v38q0 15 -38 15h-335v89h333q66 0 97 -22t31 -67v-56q0 -21 -8.5 -32.5t-22.5 -19.5q15 -8 23.5 -21t8.5 -38v-63q0 -42 -31.5 -65.5t-97.5 -23.5h-335z" />
<glyph unicode="&#xb4;" horiz-adv-x="423" d="M66 794v65l291 65v-86z" />
<glyph unicode="&#xb6;" horiz-adv-x="867" d="M275 0v590h-209q0 149 146 149h589v-739h-112v590h-302v-590h-112z" />
<glyph unicode="&#xb7;" horiz-adv-x="280" d="M66 279zM140 279q-33 0 -53.5 20.5t-20.5 52.5q0 33 20.5 53.5t53.5 20.5q32 0 53 -20.5t21 -53.5q0 -32 -21 -52.5t-53 -20.5z" />
<glyph unicode="&#xb8;" horiz-adv-x="285" d="M73 -188l30 148h116v-55l-90 -93h-56z" />
<glyph unicode="&#xb9;" horiz-adv-x="279" d="M31 331zM143 331v282q0 19 -13.5 28t-35.5 9h-63v89h62q63 0 101 -27.5t38 -85.5v-295h-89z" />
<glyph unicode="&#xba;" horiz-adv-x="696" d="M174 473q0 -55 65 -55h219q66 0 66 53v112q0 55 -66 55h-219q-65 0 -65 -55v-110zM239 317q-173 0 -173 140v142q0 141 173 141h219q172 0 172 -141v-143q0 -139 -172 -139h-219z" />
<glyph unicode="&#xbb;" horiz-adv-x="597" d="M310 182v93l173 94l-173 93v94l244 -145q11 -7 17 -18.5t6 -23.5t-5.5 -23.5t-17.5 -18.5zM20 182v93l173 94l-173 93v94l244 -145q11 -7 17 -18.5t6 -23.5t-5.5 -23.5t-17.5 -18.5z" />
<glyph unicode="&#xbc;" horiz-adv-x="1133" d="M62 0zM174 331v282q0 19 -13.5 28t-35.5 9h-63v89h62q63 0 101 -27.5t38 -85.5v-295h-89zM129 0l456 739h105l-457 -739h-104zM689 124q-32 0 -57.5 6t-43.5 20.5t-27.5 39t-9.5 61.5v157h89v-162q0 -21 11.5 -29.5t40.5 -8.5h232v117h90v-117h57v-84h-57v-124h-90v124 h-235z" />
<glyph unicode="&#xbd;" horiz-adv-x="1102" d="M62 0zM174 331v282q0 19 -13.5 28t-35.5 9h-63v89h62q63 0 101 -27.5t38 -85.5v-295h-89zM141 0l456 739h105l-457 -739h-104zM555 0v187q0 42 31.5 64.5t94.5 22.5h241q14 0 19.5 2.5t5.5 10.5v24q0 4 -5 6t-19 2h-321v89h318q120 0 120 -82v-50q0 -90 -121 -90h-238 q-37 0 -37 -27v-69h396v-90h-485z" />
<glyph unicode="&#xbe;" horiz-adv-x="1363" d="M62 0zM62 331v90h333q21 0 31.5 4t10.5 18v37q0 19 -41 19h-293v84h297q20 0 28.5 3.5t8.5 10.5v38q0 15 -38 15h-335v89h333q66 0 97 -22t31 -67v-56q0 -21 -8.5 -32.5t-22.5 -19.5q15 -8 23.5 -21t8.5 -38v-63q0 -42 -31.5 -65.5t-97.5 -23.5h-335zM356 0l456 739h105 l-457 -739h-104zM919 124q-32 0 -57.5 6t-43.5 20.5t-27.5 39t-9.5 61.5v157h89v-162q0 -21 11.5 -29.5t40.5 -8.5h232v117h90v-117h57v-84h-57v-124h-90v124h-235z" />
<glyph unicode="&#xbf;" horiz-adv-x="951" d="M15 0zM894.005 722.001q20.999 -20.999 20.999 -52.9971q0 -32.998 -20.999 -53.4961q-20.998 -20.499 -53.9961 -20.499q-31.998 0 -52.9971 20.499q-20.999 20.498 -20.999 53.4961q0 31.998 20.999 52.4971t52.9971 20.499q30.998 0 53.9961 -19.999zM906.005 522.014 v-119.993q0 -71.9951 -55.9971 -112.493q-55.9961 -40.4971 -167.989 -40.4971h-458.973q-33.9971 0 -45.9971 -7.5q-11.999 -7.49902 -11.999 -25.498v-43.998q0 -13.999 11.999 -20.498q12 -6.5 44.9971 -6.5h691.958v-144.991h-686.958q-211.987 0 -211.987 141.991 v92.9951q0 158.99 213.987 158.99h466.972q78.9951 0 78.9951 58.9961v68.9961h130.992z" />
<glyph unicode="&#xc0;" horiz-adv-x="1039" d="M64 0zM64 0v488q0 121 70.5 186t214.5 65h341q144 0 214.5 -65t70.5 -186v-488h-145v236h-621v-236h-145zM209 371h621v117q0 27 -6.5 46.5t-23 33t-43.5 20t-68 6.5h-339q-41 0 -68 -6.5t-43.5 -20t-23 -33t-6.5 -46.5v-117zM344 838v86l291 -65v-65z" />
<glyph unicode="&#xc1;" horiz-adv-x="1039" d="M64 0zM64 0v488q0 121 70.5 186t214.5 65h341q144 0 214.5 -65t70.5 -186v-488h-145v236h-621v-236h-145zM209 371h621v117q0 27 -6.5 46.5t-23 33t-43.5 20t-68 6.5h-339q-41 0 -68 -6.5t-43.5 -20t-23 -33t-6.5 -46.5v-117zM404 794v65l291 65v-86z" />
<glyph unicode="&#xc2;" horiz-adv-x="1039" d="M64 0zM64 0v488q0 121 70.5 186t214.5 65h341q144 0 214.5 -65t70.5 -186v-488h-145v236h-621v-236h-145zM209 371h621v117q0 27 -6.5 46.5t-23 33t-43.5 20t-68 6.5h-339q-41 0 -68 -6.5t-43.5 -20t-23 -33t-6.5 -46.5v-117zM363 787l101 149h110l101 -149h-83l-58 97 h-30l-59 -97h-82z" />
<glyph unicode="&#xc3;" horiz-adv-x="1039" d="M64 0zM64 0v488q0 121 70.5 186t214.5 65h341q144 0 214.5 -65t70.5 -186v-488h-145v236h-621v-236h-145zM209 371h621v117q0 27 -6.5 46.5t-23 33t-43.5 20t-68 6.5h-339q-41 0 -68 -6.5t-43.5 -20t-23 -33t-6.5 -46.5v-117zM374 826v71h291v-71h-291z" />
<glyph unicode="&#xc4;" horiz-adv-x="1039" d="M64 0zM64 0v488q0 121 70.5 186t214.5 65h341q144 0 214.5 -65t70.5 -186v-488h-145v236h-621v-236h-145zM209 371h621v117q0 27 -6.5 46.5t-23 33t-43.5 20t-68 6.5h-339q-41 0 -68 -6.5t-43.5 -20t-23 -33t-6.5 -46.5v-117zM581 812v124h94v-124h-94zM364 812v124h95 v-124h-95z" />
<glyph unicode="&#xc5;" horiz-adv-x="1039" d="M64 0zM64 0v488q0 121 70.5 186t214.5 65h341q144 0 214.5 -65t70.5 -186v-488h-145v236h-621v-236h-145zM209 371h621v117q0 27 -6.5 46.5t-23 33t-43.5 20t-68 6.5h-339q-41 0 -68 -6.5t-43.5 -20t-23 -33t-6.5 -46.5v-117zM436 851q0 -22 9.5 -29.5t32.5 -7.5h81 q24 0 33.5 8.5t9.5 28.5v17q0 18 -9 27.5t-30 9.5h-85q-25 0 -33.5 -8.5t-8.5 -28.5v-17zM478 759q-101 0 -101 82v36q0 85 101 85h80q103 0 103 -85v-36q0 -82 -103 -82h-80z" />
<glyph unicode="&#xc6;" horiz-adv-x="1585" d="M64 0v488q0 121 70.5 186t214.5 65h1190v-145h-664v-97h525v-135h-525v-217h666v-145h-811v236h-521v-236h-145zM209 371h521v223h-380q-41 0 -68 -6.5t-43.5 -20t-23 -33t-6.5 -46.5v-117z" />
<glyph unicode="&#xc7;" horiz-adv-x="1016" d="M62 0zM306 0q-68 0 -114.5 13t-75 38.5t-41.5 63t-13 86.5v337q0 49 13 86.5t41.5 63t75 38.5t114.5 13h665v-145h-666q-49 0 -71.5 -15.5t-22.5 -46.5v-325q0 -31 22.5 -46.5t71.5 -15.5h668v-145h-667zM438 -188l30 148h116v-55l-90 -93h-56z" />
<glyph unicode="&#xc8;" d="M66 0zM66 0v739h909v-145h-764v-97h625v-135h-625v-217h766v-145h-911zM335 838v86l291 -65v-65z" />
<glyph unicode="&#xc9;" d="M66 0zM66 0v739h909v-145h-764v-97h625v-135h-625v-217h766v-145h-911zM395 794v65l291 65v-86z" />
<glyph unicode="&#xca;" d="M66 0zM66 0v739h909v-145h-764v-97h625v-135h-625v-217h766v-145h-911zM354 787l101 149h110l101 -149h-83l-58 97h-30l-59 -97h-82z" />
<glyph unicode="&#xcb;" d="M66 0zM66 0v739h909v-145h-764v-97h625v-135h-625v-217h766v-145h-911zM572 812v124h94v-124h-94zM355 812v124h95v-124h-95z" />
<glyph unicode="&#xcc;" horiz-adv-x="293" d="M0 0zM74 0v739h145v-739h-145zM-28 838v86l291 -65v-65z" />
<glyph unicode="&#xcd;" horiz-adv-x="293" d="M32 0zM74 0v739h145v-739h-145zM32 794v65l291 65v-86z" />
<glyph unicode="&#xce;" horiz-adv-x="293" d="M0 0zM74 0v739h145v-739h-145zM-8 787l101 149h110l101 -149h-83l-58 97h-30l-59 -97h-82z" />
<glyph unicode="&#xcf;" horiz-adv-x="293" d="M0 0zM74 0v739h145v-739h-145zM209 812v124h94v-124h-94zM-8 812v124h95v-124h-95z" />
<glyph unicode="&#xd0;" horiz-adv-x="1038" d="M66 0v362h-66v135h66v242h666q67 0 114 -13t75.5 -38.5t41.5 -63t13 -86.5v-337q0 -49 -13 -86.5t-41.5 -63t-75.5 -38.5t-114 -13h-666zM211 145h522q49 0 71.5 15.5t22.5 46.5v325q0 31 -22.5 46.5t-71.5 15.5h-522v-97h414v-135h-414v-217z" />
<glyph unicode="&#xd1;" horiz-adv-x="1043" d="M66 0zM66 0v675q0 35 20.5 54.5t47.5 19.5q12 0 25 -4t24 -13l649 -524v531h145v-676q0 -35 -20.5 -54.5t-47.5 -19.5q-12 0 -25 4t-24 13l-649 524v-530h-145zM376 826v71h291v-71h-291z" />
<glyph unicode="&#xd2;" horiz-adv-x="1035" d="M62 0zM306 0q-68 0 -114.5 13t-75 38.5t-41.5 63t-13 86.5v337q0 49 13 86.5t41.5 63t75 38.5t114.5 13h423q67 0 114 -13t75.5 -38.5t41.5 -63t13 -86.5v-337q0 -49 -13 -86.5t-41.5 -63t-75.5 -38.5t-114 -13h-423zM211 207q0 -31 22.5 -46.5t71.5 -15.5h425 q49 0 71.5 15.5t22.5 46.5v325q0 31 -22.5 46.5t-71.5 15.5h-425q-49 0 -71.5 -15.5t-22.5 -46.5v-325zM342 838v86l291 -65v-65z" />
<glyph unicode="&#xd3;" horiz-adv-x="1035" d="M62 0zM306 0q-68 0 -114.5 13t-75 38.5t-41.5 63t-13 86.5v337q0 49 13 86.5t41.5 63t75 38.5t114.5 13h423q67 0 114 -13t75.5 -38.5t41.5 -63t13 -86.5v-337q0 -49 -13 -86.5t-41.5 -63t-75.5 -38.5t-114 -13h-423zM211 207q0 -31 22.5 -46.5t71.5 -15.5h425 q49 0 71.5 15.5t22.5 46.5v325q0 31 -22.5 46.5t-71.5 15.5h-425q-49 0 -71.5 -15.5t-22.5 -46.5v-325zM402 794v65l291 65v-86z" />
<glyph unicode="&#xd4;" horiz-adv-x="1035" d="M62 0zM306 0q-68 0 -114.5 13t-75 38.5t-41.5 63t-13 86.5v337q0 49 13 86.5t41.5 63t75 38.5t114.5 13h423q67 0 114 -13t75.5 -38.5t41.5 -63t13 -86.5v-337q0 -49 -13 -86.5t-41.5 -63t-75.5 -38.5t-114 -13h-423zM211 207q0 -31 22.5 -46.5t71.5 -15.5h425 q49 0 71.5 15.5t22.5 46.5v325q0 31 -22.5 46.5t-71.5 15.5h-425q-49 0 -71.5 -15.5t-22.5 -46.5v-325zM361 787l101 149h110l101 -149h-83l-58 97h-30l-59 -97h-82z" />
<glyph unicode="&#xd5;" horiz-adv-x="1035" d="M62 0zM306 0q-68 0 -114.5 13t-75 38.5t-41.5 63t-13 86.5v337q0 49 13 86.5t41.5 63t75 38.5t114.5 13h423q67 0 114 -13t75.5 -38.5t41.5 -63t13 -86.5v-337q0 -49 -13 -86.5t-41.5 -63t-75.5 -38.5t-114 -13h-423zM211 207q0 -31 22.5 -46.5t71.5 -15.5h425 q49 0 71.5 15.5t22.5 46.5v325q0 31 -22.5 46.5t-71.5 15.5h-425q-49 0 -71.5 -15.5t-22.5 -46.5v-325zM372 826v71h291v-71h-291z" />
<glyph unicode="&#xd6;" horiz-adv-x="1035" d="M62 0zM306 0q-68 0 -114.5 13t-75 38.5t-41.5 63t-13 86.5v337q0 49 13 86.5t41.5 63t75 38.5t114.5 13h423q67 0 114 -13t75.5 -38.5t41.5 -63t13 -86.5v-337q0 -49 -13 -86.5t-41.5 -63t-75.5 -38.5t-114 -13h-423zM211 207q0 -31 22.5 -46.5t71.5 -15.5h425 q49 0 71.5 15.5t22.5 46.5v325q0 31 -22.5 46.5t-71.5 15.5h-425q-49 0 -71.5 -15.5t-22.5 -46.5v-325zM579 812v124h94v-124h-94zM362 812v124h95v-124h-95z" />
<glyph unicode="&#xd7;" horiz-adv-x="576" d="M66 224l148 148l-147 147l74 74l147 -147l147 146l74 -74l-146 -146l147 -147l-75 -75l-147 147l-147 -147z" />
<glyph unicode="&#xd8;" horiz-adv-x="1035" d="M306 0q-68 0 -114.5 13t-75 38.5t-41.5 63t-13 86.5v337q0 49 13 86.5t41.5 63t75 38.5t114.5 13h423q67 0 114 -13t75.5 -38.5t41.5 -63t13 -86.5v-337q0 -49 -13 -86.5t-41.5 -63t-75.5 -38.5t-114 -13h-423zM211 207q0 -50 61 -60l381 447h-348q-49 0 -71.5 -15.5 t-22.5 -46.5v-325zM386 145h344q49 0 71.5 15.5t22.5 46.5v325q0 48 -57 59z" />
<glyph unicode="&#xd9;" horiz-adv-x="1034" d="M64 0zM308 0q-68 0 -114.5 13t-75 38.5t-41.5 63t-13 86.5v538h149v-532q0 -31 22.5 -46.5t71.5 -15.5h420q49 0 71.5 15.5t22.5 46.5v532h149v-538q0 -49 -13 -86.5t-41.5 -63t-75.5 -38.5t-114 -13h-418zM341 838v86l291 -65v-65z" />
<glyph unicode="&#xda;" horiz-adv-x="1034" d="M64 0zM308 0q-68 0 -114.5 13t-75 38.5t-41.5 63t-13 86.5v538h149v-532q0 -31 22.5 -46.5t71.5 -15.5h420q49 0 71.5 15.5t22.5 46.5v532h149v-538q0 -49 -13 -86.5t-41.5 -63t-75.5 -38.5t-114 -13h-418zM401 794v65l291 65v-86z" />
<glyph unicode="&#xdb;" horiz-adv-x="1034" d="M64 0zM308 0q-68 0 -114.5 13t-75 38.5t-41.5 63t-13 86.5v538h149v-532q0 -31 22.5 -46.5t71.5 -15.5h420q49 0 71.5 15.5t22.5 46.5v532h149v-538q0 -49 -13 -86.5t-41.5 -63t-75.5 -38.5t-114 -13h-418zM361 787l101 149h110l101 -149h-83l-58 97h-30l-59 -97h-82z " />
<glyph unicode="&#xdc;" horiz-adv-x="1034" d="M64 0zM308 0q-68 0 -114.5 13t-75 38.5t-41.5 63t-13 86.5v538h149v-532q0 -31 22.5 -46.5t71.5 -15.5h420q49 0 71.5 15.5t22.5 46.5v532h149v-538q0 -49 -13 -86.5t-41.5 -63t-75.5 -38.5t-114 -13h-418zM578 812v124h94v-124h-94zM361 812v124h95v-124h-95z" />
<glyph unicode="&#xdd;" horiz-adv-x="1041" d="M66 0zM213 0v145h521q49 0 71.5 15.5t22.5 46.5v34h-518q-68 0 -114.5 13t-75 38.5t-41.5 63t-13 86.5v297h149v-301q0 -31 22.5 -46.5t71.5 -15.5h519v363h149v-538q0 -49 -13 -86.5t-41.5 -63t-75.5 -38.5t-114 -13h-520zM405 794v65l291 65v-86z" />
<glyph unicode="&#xde;" horiz-adv-x="1002" d="M66 0v739h145v-110h522q67 0 114 -13t75.5 -38.5t41.5 -63t13 -86.5v-96q0 -49 -13 -86.5t-41.5 -63t-75.5 -38.5t-114 -13h-522v-131h-145zM211 266h523q49 0 71.5 15.5t22.5 46.5v94q0 31 -22.5 46.5t-71.5 15.5h-523v-218z" />
<glyph unicode="&#xdf;" horiz-adv-x="2010" d="M62 0zM62 0v145h640q49 0 71.5 15.5t22.5 46.5v76q0 31 -22.5 46.5t-71.5 15.5h-426q-214 0 -214 159v93q0 142 212 142h641v-145h-646q-33 0 -45 -6.5t-12 -20.5v-44q0 -18 12 -25.5t46 -7.5h431q67 0 114 -13t75.5 -38.5t41.5 -63t13 -86.5v-88q0 -49 -13 -86.5 t-41.5 -63t-75.5 -38.5t-114 -13h-639zM1067 0v145h640q49 0 71.5 15.5t22.5 46.5v76q0 31 -22.5 46.5t-71.5 15.5h-426q-214 0 -214 159v93q0 142 212 142h641v-145h-646q-33 0 -45 -6.5t-12 -20.5v-44q0 -18 12 -25.5t46 -7.5h431q67 0 114 -13t75.5 -38.5t41.5 -63 t13 -86.5v-88q0 -49 -13 -86.5t-41.5 -63t-75.5 -38.5t-114 -13h-639z" />
<glyph unicode="&#xe0;" horiz-adv-x="1039" d="M64 0zM64 0v488q0 121 70.5 186t214.5 65h341q144 0 214.5 -65t70.5 -186v-488h-145v236h-621v-236h-145zM209 371h621v117q0 27 -6.5 46.5t-23 33t-43.5 20t-68 6.5h-339q-41 0 -68 -6.5t-43.5 -20t-23 -33t-6.5 -46.5v-117zM344 838v86l291 -65v-65z" />
<glyph unicode="&#xe1;" horiz-adv-x="1039" d="M64 0zM64 0v488q0 121 70.5 186t214.5 65h341q144 0 214.5 -65t70.5 -186v-488h-145v236h-621v-236h-145zM209 371h621v117q0 27 -6.5 46.5t-23 33t-43.5 20t-68 6.5h-339q-41 0 -68 -6.5t-43.5 -20t-23 -33t-6.5 -46.5v-117zM404 794v65l291 65v-86z" />
<glyph unicode="&#xe2;" horiz-adv-x="1039" d="M64 0zM64 0v488q0 121 70.5 186t214.5 65h341q144 0 214.5 -65t70.5 -186v-488h-145v236h-621v-236h-145zM209 371h621v117q0 27 -6.5 46.5t-23 33t-43.5 20t-68 6.5h-339q-41 0 -68 -6.5t-43.5 -20t-23 -33t-6.5 -46.5v-117zM363 787l101 149h110l101 -149h-83l-58 97 h-30l-59 -97h-82z" />
<glyph unicode="&#xe3;" horiz-adv-x="1039" d="M64 0zM64 0v488q0 121 70.5 186t214.5 65h341q144 0 214.5 -65t70.5 -186v-488h-145v236h-621v-236h-145zM209 371h621v117q0 27 -6.5 46.5t-23 33t-43.5 20t-68 6.5h-339q-41 0 -68 -6.5t-43.5 -20t-23 -33t-6.5 -46.5v-117zM374 826v71h291v-71h-291z" />
<glyph unicode="&#xe4;" horiz-adv-x="1039" d="M64 0zM64 0v488q0 121 70.5 186t214.5 65h341q144 0 214.5 -65t70.5 -186v-488h-145v236h-621v-236h-145zM209 371h621v117q0 27 -6.5 46.5t-23 33t-43.5 20t-68 6.5h-339q-41 0 -68 -6.5t-43.5 -20t-23 -33t-6.5 -46.5v-117zM581 812v124h94v-124h-94zM364 812v124h95 v-124h-95z" />
<glyph unicode="&#xe5;" horiz-adv-x="1039" d="M64 0zM64 0v488q0 121 70.5 186t214.5 65h341q144 0 214.5 -65t70.5 -186v-488h-145v236h-621v-236h-145zM209 371h621v117q0 27 -6.5 46.5t-23 33t-43.5 20t-68 6.5h-339q-41 0 -68 -6.5t-43.5 -20t-23 -33t-6.5 -46.5v-117zM436 851q0 -22 9.5 -29.5t32.5 -7.5h81 q24 0 33.5 8.5t9.5 28.5v17q0 18 -9 27.5t-30 9.5h-85q-25 0 -33.5 -8.5t-8.5 -28.5v-17zM478 759q-101 0 -101 82v36q0 85 101 85h80q103 0 103 -85v-36q0 -82 -103 -82h-80z" />
<glyph unicode="&#xe6;" horiz-adv-x="1585" d="M64 0zM64 0v488q0 121 70.5 186t214.5 65h1190v-145h-664v-97h525v-135h-525v-217h666v-145h-811v236h-521v-236h-145zM209 371h521v223h-380q-41 0 -68 -6.5t-43.5 -20t-23 -33t-6.5 -46.5v-117z" />
<glyph unicode="&#xe7;" horiz-adv-x="1016" d="M62 0zM306 0q-68 0 -114.5 13t-75 38.5t-41.5 63t-13 86.5v337q0 49 13 86.5t41.5 63t75 38.5t114.5 13h665v-145h-666q-49 0 -71.5 -15.5t-22.5 -46.5v-325q0 -31 22.5 -46.5t71.5 -15.5h668v-145h-667zM438 -188l30 148h116v-55l-90 -93h-56z" />
<glyph unicode="&#xe8;" d="M66 0zM66 0v739h909v-145h-764v-97h625v-135h-625v-217h766v-145h-911zM335 838v86l291 -65v-65z" />
<glyph unicode="&#xe9;" d="M66 0zM66 0v739h909v-145h-764v-97h625v-135h-625v-217h766v-145h-911zM395 794v65l291 65v-86z" />
<glyph unicode="&#xea;" d="M66 0zM66 0v739h909v-145h-764v-97h625v-135h-625v-217h766v-145h-911zM354 787l101 149h110l101 -149h-83l-58 97h-30l-59 -97h-82z" />
<glyph unicode="&#xeb;" d="M66 0zM66 0v739h909v-145h-764v-97h625v-135h-625v-217h766v-145h-911zM572 812v124h94v-124h-94zM355 812v124h95v-124h-95z" />
<glyph unicode="&#xec;" horiz-adv-x="293" d="M0 0zM74 0v739h145v-739h-145zM-28 838v86l291 -65v-65z" />
<glyph unicode="&#xed;" horiz-adv-x="293" d="M32 0zM74 0v739h145v-739h-145zM32 794v65l291 65v-86z" />
<glyph unicode="&#xee;" horiz-adv-x="293" d="M0 0zM74 0v739h145v-739h-145zM-8 787l101 149h110l101 -149h-83l-58 97h-30l-59 -97h-82z" />
<glyph unicode="&#xef;" horiz-adv-x="293" d="M0 0zM74 0v739h145v-739h-145zM209 812v124h94v-124h-94zM-8 812v124h95v-124h-95z" />
<glyph unicode="&#xf0;" horiz-adv-x="1038" d="M0 0zM66 0v362h-66v135h66v242h666q67 0 114 -13t75.5 -38.5t41.5 -63t13 -86.5v-337q0 -49 -13 -86.5t-41.5 -63t-75.5 -38.5t-114 -13h-666zM211 145h522q49 0 71.5 15.5t22.5 46.5v325q0 31 -22.5 46.5t-71.5 15.5h-522v-97h414v-135h-414v-217z" />
<glyph unicode="&#xf1;" horiz-adv-x="1043" d="M66 0zM66 0v675q0 35 20.5 54.5t47.5 19.5q12 0 25 -4t24 -13l649 -524v531h145v-676q0 -35 -20.5 -54.5t-47.5 -19.5q-12 0 -25 4t-24 13l-649 524v-530h-145zM376 826v71h291v-71h-291z" />
<glyph unicode="&#xf2;" horiz-adv-x="1035" d="M62 0zM306 0q-68 0 -114.5 13t-75 38.5t-41.5 63t-13 86.5v337q0 49 13 86.5t41.5 63t75 38.5t114.5 13h423q67 0 114 -13t75.5 -38.5t41.5 -63t13 -86.5v-337q0 -49 -13 -86.5t-41.5 -63t-75.5 -38.5t-114 -13h-423zM211 207q0 -31 22.5 -46.5t71.5 -15.5h425 q49 0 71.5 15.5t22.5 46.5v325q0 31 -22.5 46.5t-71.5 15.5h-425q-49 0 -71.5 -15.5t-22.5 -46.5v-325zM342 838v86l291 -65v-65z" />
<glyph unicode="&#xf3;" horiz-adv-x="1035" d="M62 0zM306 0q-68 0 -114.5 13t-75 38.5t-41.5 63t-13 86.5v337q0 49 13 86.5t41.5 63t75 38.5t114.5 13h423q67 0 114 -13t75.5 -38.5t41.5 -63t13 -86.5v-337q0 -49 -13 -86.5t-41.5 -63t-75.5 -38.5t-114 -13h-423zM211 207q0 -31 22.5 -46.5t71.5 -15.5h425 q49 0 71.5 15.5t22.5 46.5v325q0 31 -22.5 46.5t-71.5 15.5h-425q-49 0 -71.5 -15.5t-22.5 -46.5v-325zM402 794v65l291 65v-86z" />
<glyph unicode="&#xf4;" horiz-adv-x="1035" d="M62 0zM306 0q-68 0 -114.5 13t-75 38.5t-41.5 63t-13 86.5v337q0 49 13 86.5t41.5 63t75 38.5t114.5 13h423q67 0 114 -13t75.5 -38.5t41.5 -63t13 -86.5v-337q0 -49 -13 -86.5t-41.5 -63t-75.5 -38.5t-114 -13h-423zM211 207q0 -31 22.5 -46.5t71.5 -15.5h425 q49 0 71.5 15.5t22.5 46.5v325q0 31 -22.5 46.5t-71.5 15.5h-425q-49 0 -71.5 -15.5t-22.5 -46.5v-325zM361 787l101 149h110l101 -149h-83l-58 97h-30l-59 -97h-82z" />
<glyph unicode="&#xf5;" horiz-adv-x="1035" d="M62 0zM306 0q-68 0 -114.5 13t-75 38.5t-41.5 63t-13 86.5v337q0 49 13 86.5t41.5 63t75 38.5t114.5 13h423q67 0 114 -13t75.5 -38.5t41.5 -63t13 -86.5v-337q0 -49 -13 -86.5t-41.5 -63t-75.5 -38.5t-114 -13h-423zM211 207q0 -31 22.5 -46.5t71.5 -15.5h425 q49 0 71.5 15.5t22.5 46.5v325q0 31 -22.5 46.5t-71.5 15.5h-425q-49 0 -71.5 -15.5t-22.5 -46.5v-325zM372 826v71h291v-71h-291z" />
<glyph unicode="&#xf6;" horiz-adv-x="1035" d="M62 0zM306 0q-68 0 -114.5 13t-75 38.5t-41.5 63t-13 86.5v337q0 49 13 86.5t41.5 63t75 38.5t114.5 13h423q67 0 114 -13t75.5 -38.5t41.5 -63t13 -86.5v-337q0 -49 -13 -86.5t-41.5 -63t-75.5 -38.5t-114 -13h-423zM211 207q0 -31 22.5 -46.5t71.5 -15.5h425 q49 0 71.5 15.5t22.5 46.5v325q0 31 -22.5 46.5t-71.5 15.5h-425q-49 0 -71.5 -15.5t-22.5 -46.5v-325zM579 812v124h94v-124h-94zM362 812v124h95v-124h-95z" />
<glyph unicode="&#xf7;" horiz-adv-x="583" d="M27 133zM233 481q-21 21 -21 53q0 33 21 53.5t53 20.5q33 0 53.5 -20.5t20.5 -53.5q0 -32 -20.5 -52.5t-53.5 -20.5q-30 0 -53 20zM233 153q-21 21 -21 53q0 33 21 53.5t53 20.5q33 0 53.5 -20.5t20.5 -53.5q0 -32 -20.5 -52.5t-53.5 -20.5q-30 0 -53 20zM27 320v105h521 v-105h-521z" />
<glyph unicode="&#xf8;" horiz-adv-x="1035" d="M62 0zM306 0q-68 0 -114.5 13t-75 38.5t-41.5 63t-13 86.5v337q0 49 13 86.5t41.5 63t75 38.5t114.5 13h423q67 0 114 -13t75.5 -38.5t41.5 -63t13 -86.5v-337q0 -49 -13 -86.5t-41.5 -63t-75.5 -38.5t-114 -13h-423zM211 207q0 -50 61 -60l381 447h-348 q-49 0 -71.5 -15.5t-22.5 -46.5v-325zM386 145h344q49 0 71.5 15.5t22.5 46.5v325q0 48 -57 59z" />
<glyph unicode="&#xf9;" horiz-adv-x="1034" d="M64 0zM308 0q-68 0 -114.5 13t-75 38.5t-41.5 63t-13 86.5v538h149v-532q0 -31 22.5 -46.5t71.5 -15.5h420q49 0 71.5 15.5t22.5 46.5v532h149v-538q0 -49 -13 -86.5t-41.5 -63t-75.5 -38.5t-114 -13h-418zM341 838v86l291 -65v-65z" />
<glyph unicode="&#xfa;" horiz-adv-x="1034" d="M64 0zM308 0q-68 0 -114.5 13t-75 38.5t-41.5 63t-13 86.5v538h149v-532q0 -31 22.5 -46.5t71.5 -15.5h420q49 0 71.5 15.5t22.5 46.5v532h149v-538q0 -49 -13 -86.5t-41.5 -63t-75.5 -38.5t-114 -13h-418zM401 794v65l291 65v-86z" />
<glyph unicode="&#xfb;" horiz-adv-x="1034" d="M64 0zM308 0q-68 0 -114.5 13t-75 38.5t-41.5 63t-13 86.5v538h149v-532q0 -31 22.5 -46.5t71.5 -15.5h420q49 0 71.5 15.5t22.5 46.5v532h149v-538q0 -49 -13 -86.5t-41.5 -63t-75.5 -38.5t-114 -13h-418zM361 787l101 149h110l101 -149h-83l-58 97h-30l-59 -97h-82z " />
<glyph unicode="&#xfc;" horiz-adv-x="1034" d="M64 0zM308 0q-68 0 -114.5 13t-75 38.5t-41.5 63t-13 86.5v538h149v-532q0 -31 22.5 -46.5t71.5 -15.5h420q49 0 71.5 15.5t22.5 46.5v532h149v-538q0 -49 -13 -86.5t-41.5 -63t-75.5 -38.5t-114 -13h-418zM578 812v124h94v-124h-94zM361 812v124h95v-124h-95z" />
<glyph unicode="&#xfd;" horiz-adv-x="1041" d="M66 0zM213 0v145h521q49 0 71.5 15.5t22.5 46.5v34h-518q-68 0 -114.5 13t-75 38.5t-41.5 63t-13 86.5v297h149v-301q0 -31 22.5 -46.5t71.5 -15.5h519v363h149v-538q0 -49 -13 -86.5t-41.5 -63t-75.5 -38.5t-114 -13h-520zM405 794v65l291 65v-86z" />
<glyph unicode="&#xfe;" horiz-adv-x="1002" d="M66 0zM66 0v739h145v-110h522q67 0 114 -13t75.5 -38.5t41.5 -63t13 -86.5v-96q0 -49 -13 -86.5t-41.5 -63t-75.5 -38.5t-114 -13h-522v-131h-145zM211 266h523q49 0 71.5 15.5t22.5 46.5v94q0 31 -22.5 46.5t-71.5 15.5h-523v-218z" />
<glyph unicode="&#xff;" horiz-adv-x="1041" d="M66 0zM213 0v145h521q49 0 71.5 15.5t22.5 46.5v34h-518q-68 0 -114.5 13t-75 38.5t-41.5 63t-13 86.5v297h149v-301q0 -31 22.5 -46.5t71.5 -15.5h519v363h149v-538q0 -49 -13 -86.5t-41.5 -63t-75.5 -38.5t-114 -13h-520zM582 812v124h94v-124h-94zM365 812v124h95 v-124h-95z" />
<glyph unicode="&#x100;" horiz-adv-x="1039" d="M64 0zM64 0v488q0 121 70.5 186t214.5 65h341q144 0 214.5 -65t70.5 -186v-488h-145v236h-621v-236h-145zM209 371h621v117q0 27 -6.5 46.5t-23 33t-43.5 20t-68 6.5h-339q-41 0 -68 -6.5t-43.5 -20t-23 -33t-6.5 -46.5v-117zM374 826v71h291v-71h-291z" />
<glyph unicode="&#x101;" horiz-adv-x="1039" d="M64 0zM64 0v488q0 121 70.5 186t214.5 65h341q144 0 214.5 -65t70.5 -186v-488h-145v236h-621v-236h-145zM209 371h621v117q0 27 -6.5 46.5t-23 33t-43.5 20t-68 6.5h-339q-41 0 -68 -6.5t-43.5 -20t-23 -33t-6.5 -46.5v-117zM374 826v71h291v-71h-291z" />
<glyph unicode="&#x102;" horiz-adv-x="1039" d="M64 0zM64 0v488q0 121 70.5 186t214.5 65h341q144 0 214.5 -65t70.5 -186v-488h-145v236h-621v-236h-145zM209 371h621v117q0 27 -6.5 46.5t-23 33t-43.5 20t-68 6.5h-339q-41 0 -68 -6.5t-43.5 -20t-23 -33t-6.5 -46.5v-117zM495 787q-37 0 -62 16t-40.5 39t-22.5 48.5 t-7 45.5h75q0 -15 3.5 -31.5t12 -31t22.5 -24t34 -9.5h25q19 0 32 9.5t20.5 24t11 31t3.5 31.5h74q0 -20 -6.5 -45.5t-21.5 -48.5t-39 -39t-60 -16h-54z" />
<glyph unicode="&#x103;" horiz-adv-x="1039" d="M64 0zM64 0v488q0 121 70.5 186t214.5 65h341q144 0 214.5 -65t70.5 -186v-488h-145v236h-621v-236h-145zM209 371h621v117q0 27 -6.5 46.5t-23 33t-43.5 20t-68 6.5h-339q-41 0 -68 -6.5t-43.5 -20t-23 -33t-6.5 -46.5v-117zM495 787q-37 0 -62 16t-40.5 39t-22.5 48.5 t-7 45.5h75q0 -15 3.5 -31.5t12 -31t22.5 -24t34 -9.5h25q19 0 32 9.5t20.5 24t11 31t3.5 31.5h74q0 -20 -6.5 -45.5t-21.5 -48.5t-39 -39t-60 -16h-54z" />
<glyph unicode="&#x104;" horiz-adv-x="1039" d="M64 0v488q0 121 70.5 186t214.5 65h341q144 0 214.5 -65t70.5 -186v-488l-72 -69q-13 -12 -13 -22q0 -8 6.5 -11.5t14.5 -3.5h129v-76h-135q-15 0 -29.5 4.5t-26.5 13t-19.5 20t-7.5 26.5q0 14 8 30.5t27 34.5l56 53h-83v236h-621v-236h-145zM209 371h621v117 q0 27 -6.5 46.5t-23 33t-43.5 20t-68 6.5h-339q-41 0 -68 -6.5t-43.5 -20t-23 -33t-6.5 -46.5v-117z" />
<glyph unicode="&#x105;" horiz-adv-x="1039" d="M64 0zM64 0v488q0 121 70.5 186t214.5 65h341q144 0 214.5 -65t70.5 -186v-488l-72 -69q-13 -12 -13 -22q0 -8 6.5 -11.5t14.5 -3.5h129v-76h-135q-15 0 -29.5 4.5t-26.5 13t-19.5 20t-7.5 26.5q0 14 8 30.5t27 34.5l56 53h-83v236h-621v-236h-145zM209 371h621v117 q0 27 -6.5 46.5t-23 33t-43.5 20t-68 6.5h-339q-41 0 -68 -6.5t-43.5 -20t-23 -33t-6.5 -46.5v-117z" />
<glyph unicode="&#x106;" horiz-adv-x="1016" d="M62 0zM306 0q-68 0 -114.5 13t-75 38.5t-41.5 63t-13 86.5v337q0 49 13 86.5t41.5 63t75 38.5t114.5 13h665v-145h-666q-49 0 -71.5 -15.5t-22.5 -46.5v-325q0 -31 22.5 -46.5t71.5 -15.5h668v-145h-667zM392 794v65l291 65v-86z" />
<glyph unicode="&#x107;" horiz-adv-x="1016" d="M62 0zM306 0q-68 0 -114.5 13t-75 38.5t-41.5 63t-13 86.5v337q0 49 13 86.5t41.5 63t75 38.5t114.5 13h665v-145h-666q-49 0 -71.5 -15.5t-22.5 -46.5v-325q0 -31 22.5 -46.5t71.5 -15.5h668v-145h-667zM392 794v65l291 65v-86z" />
<glyph unicode="&#x10a;" horiz-adv-x="1016" d="M62 0zM306 0q-68 0 -114.5 13t-75 38.5t-41.5 63t-13 86.5v337q0 49 13 86.5t41.5 63t75 38.5t114.5 13h665v-145h-666q-49 0 -71.5 -15.5t-22.5 -46.5v-325q0 -31 22.5 -46.5t71.5 -15.5h668v-145h-667zM460 812v124h95v-124h-95z" />
<glyph unicode="&#x10b;" horiz-adv-x="1016" d="M62 0zM306 0q-68 0 -114.5 13t-75 38.5t-41.5 63t-13 86.5v337q0 49 13 86.5t41.5 63t75 38.5t114.5 13h665v-145h-666q-49 0 -71.5 -15.5t-22.5 -46.5v-325q0 -31 22.5 -46.5t71.5 -15.5h668v-145h-667zM460 812v124h95v-124h-95z" />
<glyph unicode="&#x10c;" horiz-adv-x="1016" d="M62 0zM306 0q-68 0 -114.5 13t-75 38.5t-41.5 63t-13 86.5v337q0 49 13 86.5t41.5 63t75 38.5t114.5 13h665v-145h-666q-49 0 -71.5 -15.5t-22.5 -46.5v-325q0 -31 22.5 -46.5t71.5 -15.5h668v-145h-667zM452 787l-100 149h82l59 -98h30l57 98h84l-102 -149h-110z" />
<glyph unicode="&#x10d;" horiz-adv-x="1016" d="M62 0zM306 0q-68 0 -114.5 13t-75 38.5t-41.5 63t-13 86.5v337q0 49 13 86.5t41.5 63t75 38.5t114.5 13h665v-145h-666q-49 0 -71.5 -15.5t-22.5 -46.5v-325q0 -31 22.5 -46.5t71.5 -15.5h668v-145h-667zM452 787l-100 149h82l59 -98h30l57 98h84l-102 -149h-110z" />
<glyph unicode="&#x10e;" horiz-adv-x="1038" d="M66 0zM66 0v739h666q67 0 114 -13t75.5 -38.5t41.5 -63t13 -86.5v-337q0 -49 -13 -86.5t-41.5 -63t-75.5 -38.5t-114 -13h-666zM211 145h522q49 0 71.5 15.5t22.5 46.5v325q0 31 -22.5 46.5t-71.5 15.5h-522v-449zM463 787l-100 149h82l59 -98h30l57 98h84l-102 -149 h-110z" />
<glyph unicode="&#x10f;" horiz-adv-x="1038" d="M66 0zM66 0v739h666q67 0 114 -13t75.5 -38.5t41.5 -63t13 -86.5v-337q0 -49 -13 -86.5t-41.5 -63t-75.5 -38.5t-114 -13h-666zM211 145h522q49 0 71.5 15.5t22.5 46.5v325q0 31 -22.5 46.5t-71.5 15.5h-522v-449zM463 787l-100 149h82l59 -98h30l57 98h84l-102 -149 h-110z" />
<glyph unicode="&#x110;" horiz-adv-x="1038" d="M0 0zM66 0v362h-66v135h66v242h666q67 0 114 -13t75.5 -38.5t41.5 -63t13 -86.5v-337q0 -49 -13 -86.5t-41.5 -63t-75.5 -38.5t-114 -13h-666zM211 145h522q49 0 71.5 15.5t22.5 46.5v325q0 31 -22.5 46.5t-71.5 15.5h-522v-97h414v-135h-414v-217z" />
<glyph unicode="&#x111;" horiz-adv-x="1038" d="M0 0zM66 0v362h-66v135h66v242h666q67 0 114 -13t75.5 -38.5t41.5 -63t13 -86.5v-337q0 -49 -13 -86.5t-41.5 -63t-75.5 -38.5t-114 -13h-666zM211 145h522q49 0 71.5 15.5t22.5 46.5v325q0 31 -22.5 46.5t-71.5 15.5h-522v-97h414v-135h-414v-217z" />
<glyph unicode="&#x112;" d="M66 0zM66 0v739h909v-145h-764v-97h625v-135h-625v-217h766v-145h-911zM365 826v71h291v-71h-291z" />
<glyph unicode="&#x113;" d="M66 0zM66 0v739h909v-145h-764v-97h625v-135h-625v-217h766v-145h-911zM365 826v71h291v-71h-291z" />
<glyph unicode="&#x114;" d="M66 0zM66 0v739h909v-145h-764v-97h625v-135h-625v-217h766v-145h-911zM486 787q-37 0 -62 16t-40.5 39t-22.5 48.5t-7 45.5h75q0 -15 3.5 -31.5t12 -31t22.5 -24t34 -9.5h25q19 0 32 9.5t20.5 24t11 31t3.5 31.5h74q0 -20 -6.5 -45.5t-21.5 -48.5t-39 -39t-60 -16h-54z " />
<glyph unicode="&#x115;" d="M66 0zM66 0v739h909v-145h-764v-97h625v-135h-625v-217h766v-145h-911zM486 787q-37 0 -62 16t-40.5 39t-22.5 48.5t-7 45.5h75q0 -15 3.5 -31.5t12 -31t22.5 -24t34 -9.5h25q19 0 32 9.5t20.5 24t11 31t3.5 31.5h74q0 -20 -6.5 -45.5t-21.5 -48.5t-39 -39t-60 -16h-54z " />
<glyph unicode="&#x116;" d="M66 0zM66 0v739h909v-145h-764v-97h625v-135h-625v-217h766v-145h-911zM463 812v124h95v-124h-95z" />
<glyph unicode="&#x117;" d="M66 0zM66 0v739h909v-145h-764v-97h625v-135h-625v-217h766v-145h-911zM463 812v124h95v-124h-95z" />
<glyph unicode="&#x118;" d="M66 0v739h909v-145h-764v-97h625v-135h-625v-217h766v-145l-72 -69q-13 -12 -13 -22q0 -8 6.5 -11.5t14.5 -3.5h129v-76h-135q-15 0 -29.5 4.5t-26.5 13t-19.5 20t-7.5 26.5q0 14 8 30.5t27 34.5l56 53h-849z" />
<glyph unicode="&#x119;" d="M66 0zM66 0v739h909v-145h-764v-97h625v-135h-625v-217h766v-145l-72 -69q-13 -12 -13 -22q0 -8 6.5 -11.5t14.5 -3.5h129v-76h-135q-15 0 -29.5 4.5t-26.5 13t-19.5 20t-7.5 26.5q0 14 8 30.5t27 34.5l56 53h-849z" />
<glyph unicode="&#x11a;" d="M66 0zM66 0v739h909v-145h-764v-97h625v-135h-625v-217h766v-145h-911zM454 787l-100 149h82l59 -98h30l57 98h84l-102 -149h-110z" />
<glyph unicode="&#x11b;" d="M66 0zM66 0v739h909v-145h-764v-97h625v-135h-625v-217h766v-145h-911zM454 787l-100 149h82l59 -98h30l57 98h84l-102 -149h-110z" />
<glyph unicode="&#x11e;" horiz-adv-x="1028" d="M62 0zM306 0q-68 0 -114.5 13t-75 38.5t-41.5 63t-13 86.5v337q0 49 13 86.5t41.5 63t75 38.5t114.5 13h665v-145h-666q-49 0 -71.5 -15.5t-22.5 -46.5v-325q0 -31 22.5 -46.5t71.5 -15.5h523v217h-492v135h564q30 0 51.5 -21.5t21.5 -51.5v-424h-667zM489 787 q-37 0 -62 16t-40.5 39t-22.5 48.5t-7 45.5h75q0 -15 3.5 -31.5t12 -31t22.5 -24t34 -9.5h25q19 0 32 9.5t20.5 24t11 31t3.5 31.5h74q0 -20 -6.5 -45.5t-21.5 -48.5t-39 -39t-60 -16h-54z" />
<glyph unicode="&#x11f;" horiz-adv-x="1028" d="M62 0zM306 0q-68 0 -114.5 13t-75 38.5t-41.5 63t-13 86.5v337q0 49 13 86.5t41.5 63t75 38.5t114.5 13h665v-145h-666q-49 0 -71.5 -15.5t-22.5 -46.5v-325q0 -31 22.5 -46.5t71.5 -15.5h523v217h-492v135h564q30 0 51.5 -21.5t21.5 -51.5v-424h-667zM489 787 q-37 0 -62 16t-40.5 39t-22.5 48.5t-7 45.5h75q0 -15 3.5 -31.5t12 -31t22.5 -24t34 -9.5h25q19 0 32 9.5t20.5 24t11 31t3.5 31.5h74q0 -20 -6.5 -45.5t-21.5 -48.5t-39 -39t-60 -16h-54z" />
<glyph unicode="&#x120;" horiz-adv-x="1028" d="M62 0zM306 0q-68 0 -114.5 13t-75 38.5t-41.5 63t-13 86.5v337q0 49 13 86.5t41.5 63t75 38.5t114.5 13h665v-145h-666q-49 0 -71.5 -15.5t-22.5 -46.5v-325q0 -31 22.5 -46.5t71.5 -15.5h523v217h-492v135h564q30 0 51.5 -21.5t21.5 -51.5v-424h-667zM466 812v124h95 v-124h-95z" />
<glyph unicode="&#x121;" horiz-adv-x="1028" d="M62 0zM306 0q-68 0 -114.5 13t-75 38.5t-41.5 63t-13 86.5v337q0 49 13 86.5t41.5 63t75 38.5t114.5 13h665v-145h-666q-49 0 -71.5 -15.5t-22.5 -46.5v-325q0 -31 22.5 -46.5t71.5 -15.5h523v217h-492v135h564q30 0 51.5 -21.5t21.5 -51.5v-424h-667zM466 812v124h95 v-124h-95z" />
<glyph unicode="&#x122;" horiz-adv-x="1028" d="M62 0zM306 0q-68 0 -114.5 13t-75 38.5t-41.5 63t-13 86.5v337q0 49 13 86.5t41.5 63t75 38.5t114.5 13h665v-145h-666q-49 0 -71.5 -15.5t-22.5 -46.5v-325q0 -31 22.5 -46.5t71.5 -15.5h523v217h-492v135h564q30 0 51.5 -21.5t21.5 -51.5v-424h-667zM466 -228l-5 162 h105l-5 -162h-95z" />
<glyph unicode="&#x123;" horiz-adv-x="1028" d="M62 0zM306 0q-68 0 -114.5 13t-75 38.5t-41.5 63t-13 86.5v337q0 49 13 86.5t41.5 63t75 38.5t114.5 13h665v-145h-666q-49 0 -71.5 -15.5t-22.5 -46.5v-325q0 -31 22.5 -46.5t71.5 -15.5h523v217h-492v135h564q30 0 51.5 -21.5t21.5 -51.5v-424h-667zM466 -228l-5 162 h105l-5 -162h-95z" />
<glyph unicode="&#x126;" horiz-adv-x="1044" d="M66 0v739h145v-68h622v68h145v-739h-145v367h-622v-367h-145zM211 502h622v86h-622v-86z" />
<glyph unicode="&#x127;" horiz-adv-x="1044" d="M66 0zM66 0v739h145v-68h622v68h145v-739h-145v367h-622v-367h-145zM211 502h622v86h-622v-86z" />
<glyph unicode="&#x12a;" horiz-adv-x="293" d="M2 0zM74 0v739h145v-739h-145zM2 826v71h291v-71h-291z" />
<glyph unicode="&#x12b;" horiz-adv-x="293" d="M2 0zM74 0v739h145v-739h-145zM2 826v71h291v-71h-291z" />
<glyph unicode="&#x12c;" horiz-adv-x="293" d="M0 0zM74 0v739h145v-739h-145zM123 787q-37 0 -62 16t-40.5 39t-22.5 48.5t-7 45.5h75q0 -15 3.5 -31.5t12 -31t22.5 -24t34 -9.5h25q19 0 32 9.5t20.5 24t11 31t3.5 31.5h74q0 -20 -6.5 -45.5t-21.5 -48.5t-39 -39t-60 -16h-54z" />
<glyph unicode="&#x12d;" horiz-adv-x="293" d="M0 0zM74 0v739h145v-739h-145zM123 787q-37 0 -62 16t-40.5 39t-22.5 48.5t-7 45.5h75q0 -15 3.5 -31.5t12 -31t22.5 -24t34 -9.5h25q19 0 32 9.5t20.5 24t11 31t3.5 31.5h74q0 -20 -6.5 -45.5t-21.5 -48.5t-39 -39t-60 -16h-54z" />
<glyph unicode="&#x12e;" horiz-adv-x="293" d="M149 -182q-15 0 -29.5 4.5t-26.5 13t-19.5 20t-7.5 26.5q0 14 8 30.5t27 34.5l56 53h-83v739h145v-739l-72 -69q-13 -12 -13 -22q0 -8 6.5 -11.5t14.5 -3.5h129v-76h-135z" />
<glyph unicode="&#x12f;" horiz-adv-x="293" d="M66 0zM149 -182q-15 0 -29.5 4.5t-26.5 13t-19.5 20t-7.5 26.5q0 14 8 30.5t27 34.5l56 53h-83v739h145v-739l-72 -69q-13 -12 -13 -22q0 -8 6.5 -11.5t14.5 -3.5h129v-76h-135z" />
<glyph unicode="&#x130;" horiz-adv-x="293" d="M74 0zM74 0v739h145v-739h-145zM99 812v124h95v-124h-95z" />
<glyph unicode="&#x131;" horiz-adv-x="293" d="M74 0zM74 0v739h145v-739h-145z" />
<glyph unicode="&#x132;" horiz-adv-x="1033" d="M74 0zM74 0v739h145v-739h-145zM305 0v145h415q49 0 71.5 15.5t22.5 46.5v532h149v-538q0 -49 -13 -86.5t-41.5 -63t-75.5 -38.5t-114 -13h-414z" />
<glyph unicode="&#x133;" horiz-adv-x="1033" d="M74 0zM74 0v739h145v-739h-145zM305 0v145h415q49 0 71.5 15.5t22.5 46.5v532h149v-538q0 -49 -13 -86.5t-41.5 -63t-75.5 -38.5t-114 -13h-414z" />
<glyph unicode="&#x136;" horiz-adv-x="1014" d="M66 0zM66 0v739h145v-278h88l449 278h276l-579 -342l614 -397h-268l-492 333h-88v-333h-145zM459 -228l-5 162h105l-5 -162h-95z" />
<glyph unicode="&#x137;" horiz-adv-x="1014" d="M66 0zM66 0v739h145v-278h88l449 278h276l-579 -342l614 -397h-268l-492 333h-88v-333h-145zM459 -228l-5 162h105l-5 -162h-95z" />
<glyph unicode="&#x138;" horiz-adv-x="1014" d="M66 0zM66 0v739h145v-278h88l449 278h276l-579 -342l614 -397h-268l-492 333h-88v-333h-145z" />
<glyph unicode="&#x139;" horiz-adv-x="751" d="M31 0zM66 0v739h145v-594h515v-145h-660zM31 794v65l291 65v-86z" />
<glyph unicode="&#x13a;" horiz-adv-x="751" d="M31 0zM66 0v739h145v-594h515v-145h-660zM31 794v65l291 65v-86z" />
<glyph unicode="&#x13b;" horiz-adv-x="751" d="M66 0zM66 0v739h145v-594h515v-145h-660zM328 -228l-5 162h105l-5 -162h-95z" />
<glyph unicode="&#x13c;" horiz-adv-x="751" d="M66 0zM66 0v739h145v-594h515v-145h-660zM328 -228l-5 162h105l-5 -162h-95z" />
<glyph unicode="&#x13d;" horiz-adv-x="751" d="M66 0zM66 0v739h145v-594h515v-145h-660zM341 577l-5 162h105l-5 -162h-95z" />
<glyph unicode="&#x13e;" horiz-adv-x="751" d="M66 0zM66 0v739h145v-594h515v-145h-660zM341 577l-5 162h105l-5 -162h-95z" />
<glyph unicode="&#x13f;" horiz-adv-x="751" d="M66 0zM66 0v739h145v-594h515v-145h-660zM367 337q-33 0 -53.5 20.5t-20.5 52.5q0 33 20.5 53.5t53.5 20.5q32 0 53 -20.5t21 -53.5q0 -32 -21 -52.5t-53 -20.5z" />
<glyph unicode="&#x140;" horiz-adv-x="751" d="M66 0zM66 0v739h145v-594h515v-145h-660zM367 337q-33 0 -53.5 20.5t-20.5 52.5q0 33 20.5 53.5t53.5 20.5q32 0 53 -20.5t21 -53.5q0 -32 -21 -52.5t-53 -20.5z" />
<glyph unicode="&#x141;" horiz-adv-x="751" d="M66 0v739h145v-269l207 74v-135l-207 -74v-190h515v-145h-660z" />
<glyph unicode="&#x142;" horiz-adv-x="751" d="M66 0zM66 0v739h145v-269l207 74v-135l-207 -74v-190h515v-145h-660z" />
<glyph unicode="&#x143;" horiz-adv-x="1043" d="M66 0zM66 0v675q0 35 20.5 54.5t47.5 19.5q12 0 25 -4t24 -13l649 -524v531h145v-676q0 -35 -20.5 -54.5t-47.5 -19.5q-12 0 -25 4t-24 13l-649 524v-530h-145zM406 794v65l291 65v-86z" />
<glyph unicode="&#x144;" horiz-adv-x="1043" d="M66 0zM66 0v675q0 35 20.5 54.5t47.5 19.5q12 0 25 -4t24 -13l649 -524v531h145v-676q0 -35 -20.5 -54.5t-47.5 -19.5q-12 0 -25 4t-24 13l-649 524v-530h-145zM406 794v65l291 65v-86z" />
<glyph unicode="&#x145;" horiz-adv-x="1043" d="M66 0zM66 0v675q0 35 20.5 54.5t47.5 19.5q12 0 25 -4t24 -13l649 -524v531h145v-676q0 -35 -20.5 -54.5t-47.5 -19.5q-12 0 -25 4t-24 13l-649 524v-530h-145zM474 -228l-5 162h105l-5 -162h-95z" />
<glyph unicode="&#x146;" horiz-adv-x="1043" d="M66 0zM66 0v675q0 35 20.5 54.5t47.5 19.5q12 0 25 -4t24 -13l649 -524v531h145v-676q0 -35 -20.5 -54.5t-47.5 -19.5q-12 0 -25 4t-24 13l-649 524v-530h-145zM474 -228l-5 162h105l-5 -162h-95z" />
<glyph unicode="&#x147;" horiz-adv-x="1043" d="M66 0zM66 0v675q0 35 20.5 54.5t47.5 19.5q12 0 25 -4t24 -13l649 -524v531h145v-676q0 -35 -20.5 -54.5t-47.5 -19.5q-12 0 -25 4t-24 13l-649 524v-530h-145zM465 787l-100 149h82l59 -98h30l57 98h84l-102 -149h-110z" />
<glyph unicode="&#x148;" horiz-adv-x="1043" d="M66 0zM66 0v675q0 35 20.5 54.5t47.5 19.5q12 0 25 -4t24 -13l649 -524v531h145v-676q0 -35 -20.5 -54.5t-47.5 -19.5q-12 0 -25 4t-24 13l-649 524v-530h-145zM465 787l-100 149h82l59 -98h30l57 98h84l-102 -149h-110z" />
<glyph unicode="&#x149;" horiz-adv-x="1043" d="M66 0zM66 0v675q0 35 20.5 54.5t47.5 19.5q12 0 25 -4t24 -13l649 -524v531h145v-676q0 -35 -20.5 -54.5t-47.5 -19.5q-12 0 -25 4t-24 13l-649 524v-530h-145zM431 577l-5 162h105l-5 -162h-95z" />
<glyph unicode="&#x14a;" horiz-adv-x="1043" d="M66 0v675q0 35 20.5 54.5t47.5 19.5q12 0 25 -4t24 -13l649 -523v530h145v-756q0 -49 -13 -86.5t-41.5 -63t-75.5 -38.5t-114 -13h-314v145h319q49 0 71.5 15.5t22.5 46.5v40l-621 501v-530h-145z" />
<glyph unicode="&#x14b;" horiz-adv-x="1043" d="M66 0zM66 0v675q0 35 20.5 54.5t47.5 19.5q12 0 25 -4t24 -13l649 -523v530h145v-756q0 -49 -13 -86.5t-41.5 -63t-75.5 -38.5t-114 -13h-314v145h319q49 0 71.5 15.5t22.5 46.5v40l-621 501v-530h-145z" />
<glyph unicode="&#x14c;" horiz-adv-x="1035" d="M62 0zM306 0q-68 0 -114.5 13t-75 38.5t-41.5 63t-13 86.5v337q0 49 13 86.5t41.5 63t75 38.5t114.5 13h423q67 0 114 -13t75.5 -38.5t41.5 -63t13 -86.5v-337q0 -49 -13 -86.5t-41.5 -63t-75.5 -38.5t-114 -13h-423zM211 207q0 -31 22.5 -46.5t71.5 -15.5h425 q49 0 71.5 15.5t22.5 46.5v325q0 31 -22.5 46.5t-71.5 15.5h-425q-49 0 -71.5 -15.5t-22.5 -46.5v-325zM372 826v71h291v-71h-291z" />
<glyph unicode="&#x14d;" horiz-adv-x="1035" d="M62 0zM306 0q-68 0 -114.5 13t-75 38.5t-41.5 63t-13 86.5v337q0 49 13 86.5t41.5 63t75 38.5t114.5 13h423q67 0 114 -13t75.5 -38.5t41.5 -63t13 -86.5v-337q0 -49 -13 -86.5t-41.5 -63t-75.5 -38.5t-114 -13h-423zM211 207q0 -31 22.5 -46.5t71.5 -15.5h425 q49 0 71.5 15.5t22.5 46.5v325q0 31 -22.5 46.5t-71.5 15.5h-425q-49 0 -71.5 -15.5t-22.5 -46.5v-325zM372 826v71h291v-71h-291z" />
<glyph unicode="&#x14e;" horiz-adv-x="1035" d="M62 0zM306 0q-68 0 -114.5 13t-75 38.5t-41.5 63t-13 86.5v337q0 49 13 86.5t41.5 63t75 38.5t114.5 13h423q67 0 114 -13t75.5 -38.5t41.5 -63t13 -86.5v-337q0 -49 -13 -86.5t-41.5 -63t-75.5 -38.5t-114 -13h-423zM211 207q0 -31 22.5 -46.5t71.5 -15.5h425 q49 0 71.5 15.5t22.5 46.5v325q0 31 -22.5 46.5t-71.5 15.5h-425q-49 0 -71.5 -15.5t-22.5 -46.5v-325zM493 787q-37 0 -62 16t-40.5 39t-22.5 48.5t-7 45.5h75q0 -15 3.5 -31.5t12 -31t22.5 -24t34 -9.5h25q19 0 32 9.5t20.5 24t11 31t3.5 31.5h74q0 -20 -6.5 -45.5 t-21.5 -48.5t-39 -39t-60 -16h-54z" />
<glyph unicode="&#x14f;" horiz-adv-x="1035" d="M62 0zM306 0q-68 0 -114.5 13t-75 38.5t-41.5 63t-13 86.5v337q0 49 13 86.5t41.5 63t75 38.5t114.5 13h423q67 0 114 -13t75.5 -38.5t41.5 -63t13 -86.5v-337q0 -49 -13 -86.5t-41.5 -63t-75.5 -38.5t-114 -13h-423zM211 207q0 -31 22.5 -46.5t71.5 -15.5h425 q49 0 71.5 15.5t22.5 46.5v325q0 31 -22.5 46.5t-71.5 15.5h-425q-49 0 -71.5 -15.5t-22.5 -46.5v-325zM493 787q-37 0 -62 16t-40.5 39t-22.5 48.5t-7 45.5h75q0 -15 3.5 -31.5t12 -31t22.5 -24t34 -9.5h25q19 0 32 9.5t20.5 24t11 31t3.5 31.5h74q0 -20 -6.5 -45.5 t-21.5 -48.5t-39 -39t-60 -16h-54z" />
<glyph unicode="&#x150;" horiz-adv-x="1035" d="M62 0zM306 0q-68 0 -114.5 13t-75 38.5t-41.5 63t-13 86.5v337q0 49 13 86.5t41.5 63t75 38.5t114.5 13h423q67 0 114 -13t75.5 -38.5t41.5 -63t13 -86.5v-337q0 -49 -13 -86.5t-41.5 -63t-75.5 -38.5t-114 -13h-423zM211 207q0 -31 22.5 -46.5t71.5 -15.5h425 q49 0 71.5 15.5t22.5 46.5v325q0 31 -22.5 46.5t-71.5 15.5h-425q-49 0 -71.5 -15.5t-22.5 -46.5v-325zM567 797l58 139h97l-92 -139h-63zM393 797l55 139h97l-88 -139h-64z" />
<glyph unicode="&#x151;" horiz-adv-x="1035" d="M62 0zM306 0q-68 0 -114.5 13t-75 38.5t-41.5 63t-13 86.5v337q0 49 13 86.5t41.5 63t75 38.5t114.5 13h423q67 0 114 -13t75.5 -38.5t41.5 -63t13 -86.5v-337q0 -49 -13 -86.5t-41.5 -63t-75.5 -38.5t-114 -13h-423zM211 207q0 -31 22.5 -46.5t71.5 -15.5h425 q49 0 71.5 15.5t22.5 46.5v325q0 31 -22.5 46.5t-71.5 15.5h-425q-49 0 -71.5 -15.5t-22.5 -46.5v-325zM567 797l58 139h97l-92 -139h-63zM393 797l55 139h97l-88 -139h-64z" />
<glyph unicode="&#x152;" horiz-adv-x="1583" d="M306 0q-68 0 -114.5 13t-75 38.5t-41.5 63t-13 86.5v337q0 49 13 86.5t41.5 63t75 38.5t114.5 13h1231v-145h-664v-97h525v-135h-525v-217h666v-145h-1233zM211 207q0 -31 22.5 -46.5t71.5 -15.5h423v449h-423q-49 0 -71.5 -15.5t-22.5 -46.5v-325z" />
<glyph unicode="&#x153;" horiz-adv-x="1583" d="M62 0zM306 0q-68 0 -114.5 13t-75 38.5t-41.5 63t-13 86.5v337q0 49 13 86.5t41.5 63t75 38.5t114.5 13h1231v-145h-664v-97h525v-135h-525v-217h666v-145h-1233zM211 207q0 -31 22.5 -46.5t71.5 -15.5h423v449h-423q-49 0 -71.5 -15.5t-22.5 -46.5v-325z" />
<glyph unicode="&#x154;" horiz-adv-x="1008" d="M66 0zM66 0v739h667q67 0 114 -13t75.5 -38.5t41.5 -63t13 -86.5v-73q0 -49 -13 -86.5t-41.5 -63t-75.5 -38.5t-114 -13h-112l378 -264h-260l-350 264h-178v-264h-145zM211 394h523q49 0 71.5 15.5t22.5 46.5v76q0 31 -22.5 46.5t-71.5 15.5h-523v-200zM388 794v65 l291 65v-86z" />
<glyph unicode="&#x155;" horiz-adv-x="1008" d="M66 0zM66 0v739h667q67 0 114 -13t75.5 -38.5t41.5 -63t13 -86.5v-73q0 -49 -13 -86.5t-41.5 -63t-75.5 -38.5t-114 -13h-112l378 -264h-260l-350 264h-178v-264h-145zM211 394h523q49 0 71.5 15.5t22.5 46.5v76q0 31 -22.5 46.5t-71.5 15.5h-523v-200zM388 794v65 l291 65v-86z" />
<glyph unicode="&#x156;" horiz-adv-x="1008" d="M66 0zM66 0v739h667q67 0 114 -13t75.5 -38.5t41.5 -63t13 -86.5v-73q0 -49 -13 -86.5t-41.5 -63t-75.5 -38.5t-114 -13h-112l378 -264h-260l-350 264h-178v-264h-145zM211 394h523q49 0 71.5 15.5t22.5 46.5v76q0 31 -22.5 46.5t-71.5 15.5h-523v-200zM456 -228l-5 162 h105l-5 -162h-95z" />
<glyph unicode="&#x157;" horiz-adv-x="1008" d="M66 0zM66 0v739h667q67 0 114 -13t75.5 -38.5t41.5 -63t13 -86.5v-73q0 -49 -13 -86.5t-41.5 -63t-75.5 -38.5t-114 -13h-112l378 -264h-260l-350 264h-178v-264h-145zM211 394h523q49 0 71.5 15.5t22.5 46.5v76q0 31 -22.5 46.5t-71.5 15.5h-523v-200zM456 -228l-5 162 h105l-5 -162h-95z" />
<glyph unicode="&#x158;" horiz-adv-x="1008" d="M66 0zM66 0v739h667q67 0 114 -13t75.5 -38.5t41.5 -63t13 -86.5v-73q0 -49 -13 -86.5t-41.5 -63t-75.5 -38.5t-114 -13h-112l378 -264h-260l-350 264h-178v-264h-145zM211 394h523q49 0 71.5 15.5t22.5 46.5v76q0 31 -22.5 46.5t-71.5 15.5h-523v-200zM448 787l-100 149 h82l59 -98h30l57 98h84l-102 -149h-110z" />
<glyph unicode="&#x159;" horiz-adv-x="1008" d="M66 0zM66 0v739h667q67 0 114 -13t75.5 -38.5t41.5 -63t13 -86.5v-73q0 -49 -13 -86.5t-41.5 -63t-75.5 -38.5t-114 -13h-112l378 -264h-260l-350 264h-178v-264h-145zM211 394h523q49 0 71.5 15.5t22.5 46.5v76q0 31 -22.5 46.5t-71.5 15.5h-523v-200zM448 787l-100 149 h82l59 -98h30l57 98h84l-102 -149h-110z" />
<glyph unicode="&#x15a;" horiz-adv-x="1005" d="M62 0zM62 0v145h640q49 0 71.5 15.5t22.5 46.5v76q0 31 -22.5 46.5t-71.5 15.5h-426q-214 0 -214 159v93q0 142 212 142h641v-145h-646q-33 0 -45 -6.5t-12 -20.5v-44q0 -18 12 -25.5t46 -7.5h431q67 0 114 -13t75.5 -38.5t41.5 -63t13 -86.5v-88q0 -49 -13 -86.5 t-41.5 -63t-75.5 -38.5t-114 -13h-639zM387 794v65l291 65v-86z" />
<glyph unicode="&#x15b;" horiz-adv-x="1005" d="M62 0zM62 0v145h640q49 0 71.5 15.5t22.5 46.5v76q0 31 -22.5 46.5t-71.5 15.5h-426q-214 0 -214 159v93q0 142 212 142h641v-145h-646q-33 0 -45 -6.5t-12 -20.5v-44q0 -18 12 -25.5t46 -7.5h431q67 0 114 -13t75.5 -38.5t41.5 -63t13 -86.5v-88q0 -49 -13 -86.5 t-41.5 -63t-75.5 -38.5t-114 -13h-639zM387 794v65l291 65v-86z" />
<glyph unicode="&#x15e;" horiz-adv-x="1005" d="M62 0zM62 0v145h640q49 0 71.5 15.5t22.5 46.5v76q0 31 -22.5 46.5t-71.5 15.5h-426q-214 0 -214 159v93q0 142 212 142h641v-145h-646q-33 0 -45 -6.5t-12 -20.5v-44q0 -18 12 -25.5t46 -7.5h431q67 0 114 -13t75.5 -38.5t41.5 -63t13 -86.5v-88q0 -49 -13 -86.5 t-41.5 -63t-75.5 -38.5t-114 -13h-639zM433 -188l30 148h116v-55l-90 -93h-56z" />
<glyph unicode="&#x15f;" horiz-adv-x="1005" d="M62 0zM62 0v145h640q49 0 71.5 15.5t22.5 46.5v76q0 31 -22.5 46.5t-71.5 15.5h-426q-214 0 -214 159v93q0 142 212 142h641v-145h-646q-33 0 -45 -6.5t-12 -20.5v-44q0 -18 12 -25.5t46 -7.5h431q67 0 114 -13t75.5 -38.5t41.5 -63t13 -86.5v-88q0 -49 -13 -86.5 t-41.5 -63t-75.5 -38.5t-114 -13h-639zM433 -188l30 148h116v-55l-90 -93h-56z" />
<glyph unicode="&#x160;" horiz-adv-x="1005" d="M62 0zM62 0v145h640q49 0 71.5 15.5t22.5 46.5v76q0 31 -22.5 46.5t-71.5 15.5h-426q-214 0 -214 159v93q0 142 212 142h641v-145h-646q-33 0 -45 -6.5t-12 -20.5v-44q0 -18 12 -25.5t46 -7.5h431q67 0 114 -13t75.5 -38.5t41.5 -63t13 -86.5v-88q0 -49 -13 -86.5 t-41.5 -63t-75.5 -38.5t-114 -13h-639zM446 787l-100 149h82l59 -98h30l57 98h84l-102 -149h-110z" />
<glyph unicode="&#x161;" horiz-adv-x="1005" d="M62 0zM62 0v145h640q49 0 71.5 15.5t22.5 46.5v76q0 31 -22.5 46.5t-71.5 15.5h-426q-214 0 -214 159v93q0 142 212 142h641v-145h-646q-33 0 -45 -6.5t-12 -20.5v-44q0 -18 12 -25.5t46 -7.5h431q67 0 114 -13t75.5 -38.5t41.5 -63t13 -86.5v-88q0 -49 -13 -86.5 t-41.5 -63t-75.5 -38.5t-114 -13h-639zM446 787l-100 149h82l59 -98h30l57 98h84l-102 -149h-110z" />
<glyph unicode="&#x162;" horiz-adv-x="933" d="M9 0zM392 0v594h-383v145h911v-145h-383v-594h-145zM419 -228l-5 162h105l-5 -162h-95z" />
<glyph unicode="&#x163;" horiz-adv-x="933" d="M9 0zM392 0v594h-383v145h911v-145h-383v-594h-145zM419 -228l-5 162h105l-5 -162h-95z" />
<glyph unicode="&#x164;" horiz-adv-x="933" d="M9 0zM392 0v594h-383v145h911v-145h-383v-594h-145zM410 787l-100 149h82l59 -98h30l57 98h84l-102 -149h-110z" />
<glyph unicode="&#x165;" horiz-adv-x="933" d="M9 0zM392 0v594h-383v145h911v-145h-383v-594h-145zM410 787l-100 149h82l59 -98h30l57 98h84l-102 -149h-110z" />
<glyph unicode="&#x166;" horiz-adv-x="933" d="M392 0v337h-171v111h171v146h-383v145h911v-145h-383v-146h175v-111h-175v-337h-145z" />
<glyph unicode="&#x167;" horiz-adv-x="933" d="M9 0zM392 0v337h-171v111h171v146h-383v145h911v-145h-383v-146h175v-111h-175v-337h-145z" />
<glyph unicode="&#x168;" horiz-adv-x="1034" d="M64 0zM308 0q-68 0 -114.5 13t-75 38.5t-41.5 63t-13 86.5v538h149v-532q0 -31 22.5 -46.5t71.5 -15.5h420q49 0 71.5 15.5t22.5 46.5v532h149v-538q0 -49 -13 -86.5t-41.5 -63t-75.5 -38.5t-114 -13h-418zM371 826v71h291v-71h-291z" />
<glyph unicode="&#x169;" horiz-adv-x="1034" d="M64 0zM308 0q-68 0 -114.5 13t-75 38.5t-41.5 63t-13 86.5v538h149v-532q0 -31 22.5 -46.5t71.5 -15.5h420q49 0 71.5 15.5t22.5 46.5v532h149v-538q0 -49 -13 -86.5t-41.5 -63t-75.5 -38.5t-114 -13h-418zM371 826v71h291v-71h-291z" />
<glyph unicode="&#x16a;" horiz-adv-x="1034" d="M64 0zM308 0q-68 0 -114.5 13t-75 38.5t-41.5 63t-13 86.5v538h149v-532q0 -31 22.5 -46.5t71.5 -15.5h420q49 0 71.5 15.5t22.5 46.5v532h149v-538q0 -49 -13 -86.5t-41.5 -63t-75.5 -38.5t-114 -13h-418zM371 826v71h291v-71h-291z" />
<glyph unicode="&#x16b;" horiz-adv-x="1034" d="M64 0zM308 0q-68 0 -114.5 13t-75 38.5t-41.5 63t-13 86.5v538h149v-532q0 -31 22.5 -46.5t71.5 -15.5h420q49 0 71.5 15.5t22.5 46.5v532h149v-538q0 -49 -13 -86.5t-41.5 -63t-75.5 -38.5t-114 -13h-418zM371 826v71h291v-71h-291z" />
<glyph unicode="&#x16c;" horiz-adv-x="1034" d="M64 0zM308 0q-68 0 -114.5 13t-75 38.5t-41.5 63t-13 86.5v538h149v-532q0 -31 22.5 -46.5t71.5 -15.5h420q49 0 71.5 15.5t22.5 46.5v532h149v-538q0 -49 -13 -86.5t-41.5 -63t-75.5 -38.5t-114 -13h-418zM492 787q-37 0 -62 16t-40.5 39t-22.5 48.5t-7 45.5h75 q0 -15 3.5 -31.5t12 -31t22.5 -24t34 -9.5h25q19 0 32 9.5t20.5 24t11 31t3.5 31.5h74q0 -20 -6.5 -45.5t-21.5 -48.5t-39 -39t-60 -16h-54z" />
<glyph unicode="&#x16d;" horiz-adv-x="1034" d="M64 0zM308 0q-68 0 -114.5 13t-75 38.5t-41.5 63t-13 86.5v538h149v-532q0 -31 22.5 -46.5t71.5 -15.5h420q49 0 71.5 15.5t22.5 46.5v532h149v-538q0 -49 -13 -86.5t-41.5 -63t-75.5 -38.5t-114 -13h-418zM492 787q-37 0 -62 16t-40.5 39t-22.5 48.5t-7 45.5h75 q0 -15 3.5 -31.5t12 -31t22.5 -24t34 -9.5h25q19 0 32 9.5t20.5 24t11 31t3.5 31.5h74q0 -20 -6.5 -45.5t-21.5 -48.5t-39 -39t-60 -16h-54z" />
<glyph unicode="&#x16e;" horiz-adv-x="1034" d="M64 0zM308 0q-68 0 -114.5 13t-75 38.5t-41.5 63t-13 86.5v538h149v-532q0 -31 22.5 -46.5t71.5 -15.5h420q49 0 71.5 15.5t22.5 46.5v532h149v-538q0 -49 -13 -86.5t-41.5 -63t-75.5 -38.5t-114 -13h-418zM434 851q0 -22 9.5 -29.5t32.5 -7.5h81q24 0 33.5 8.5t9.5 28.5 v17q0 18 -9 27.5t-30 9.5h-85q-25 0 -33.5 -8.5t-8.5 -28.5v-17zM476 759q-101 0 -101 82v36q0 85 101 85h80q103 0 103 -85v-36q0 -82 -103 -82h-80z" />
<glyph unicode="&#x16f;" horiz-adv-x="1034" d="M64 0zM308 0q-68 0 -114.5 13t-75 38.5t-41.5 63t-13 86.5v538h149v-532q0 -31 22.5 -46.5t71.5 -15.5h420q49 0 71.5 15.5t22.5 46.5v532h149v-538q0 -49 -13 -86.5t-41.5 -63t-75.5 -38.5t-114 -13h-418zM434 851q0 -22 9.5 -29.5t32.5 -7.5h81q24 0 33.5 8.5t9.5 28.5 v17q0 18 -9 27.5t-30 9.5h-85q-25 0 -33.5 -8.5t-8.5 -28.5v-17zM476 759q-101 0 -101 82v36q0 85 101 85h80q103 0 103 -85v-36q0 -82 -103 -82h-80z" />
<glyph unicode="&#x170;" horiz-adv-x="1034" d="M64 0zM308 0q-68 0 -114.5 13t-75 38.5t-41.5 63t-13 86.5v538h149v-532q0 -31 22.5 -46.5t71.5 -15.5h420q49 0 71.5 15.5t22.5 46.5v532h149v-538q0 -49 -13 -86.5t-41.5 -63t-75.5 -38.5t-114 -13h-418zM566 797l58 139h97l-92 -139h-63zM392 797l55 139h97l-88 -139 h-64z" />
<glyph unicode="&#x171;" horiz-adv-x="1034" d="M64 0zM308 0q-68 0 -114.5 13t-75 38.5t-41.5 63t-13 86.5v538h149v-532q0 -31 22.5 -46.5t71.5 -15.5h420q49 0 71.5 15.5t22.5 46.5v532h149v-538q0 -49 -13 -86.5t-41.5 -63t-75.5 -38.5t-114 -13h-418zM566 797l58 139h97l-92 -139h-63zM392 797l55 139h97l-88 -139 h-64z" />
<glyph unicode="&#x172;" horiz-adv-x="1034" d="M308 0q-68 0 -114.5 13t-75 38.5t-41.5 63t-13 86.5v539h149v-533q0 -31 22.5 -46.5t71.5 -15.5h420q49 0 71.5 15.5t22.5 46.5v533h149v-539q0 -47 -11.5 -83t-37.5 -61.5t-68 -39.5t-102 -17l-72 -69q-13 -12 -13 -22q0 -8 6.5 -11.5t14.5 -3.5h129v-76h-135 q-15 0 -29.5 4.5t-26.5 13t-19.5 20t-7.5 26.5q0 14 8 30.5t27 34.5l56 53h-381z" />
<glyph unicode="&#x173;" horiz-adv-x="1034" d="M64 0zM308 0q-68 0 -114.5 13t-75 38.5t-41.5 63t-13 86.5v539h149v-533q0 -31 22.5 -46.5t71.5 -15.5h420q49 0 71.5 15.5t22.5 46.5v533h149v-539q0 -47 -11.5 -83t-37.5 -61.5t-68 -39.5t-102 -17l-72 -69q-13 -12 -13 -22q0 -8 6.5 -11.5t14.5 -3.5h129v-76h-135 q-15 0 -29.5 4.5t-26.5 13t-19.5 20t-7.5 26.5q0 14 8 30.5t27 34.5l56 53h-381z" />
<glyph unicode="&#x174;" horiz-adv-x="1467" d="M64 0zM308 0q-68 0 -114.5 13t-75 38.5t-41.5 63t-13 86.5v538h149v-532q0 -31 22.5 -46.5t71.5 -15.5h355v594h145v-594h353q49 0 71.5 15.5t22.5 46.5v532h149v-538q0 -49 -13 -86.5t-41.5 -63t-75.5 -38.5t-114 -13h-851zM577 787l101 149h110l101 -149h-83l-58 97 h-30l-59 -97h-82z" />
<glyph unicode="&#x175;" horiz-adv-x="1467" d="M64 0zM308 0q-68 0 -114.5 13t-75 38.5t-41.5 63t-13 86.5v538h149v-532q0 -31 22.5 -46.5t71.5 -15.5h355v594h145v-594h353q49 0 71.5 15.5t22.5 46.5v532h149v-538q0 -49 -13 -86.5t-41.5 -63t-75.5 -38.5t-114 -13h-851zM577 787l101 149h110l101 -149h-83l-58 97 h-30l-59 -97h-82z" />
<glyph unicode="&#x176;" horiz-adv-x="1041" d="M66 0zM213 0v145h521q49 0 71.5 15.5t22.5 46.5v34h-518q-68 0 -114.5 13t-75 38.5t-41.5 63t-13 86.5v297h149v-301q0 -31 22.5 -46.5t71.5 -15.5h519v363h149v-538q0 -49 -13 -86.5t-41.5 -63t-75.5 -38.5t-114 -13h-520zM364 787l101 149h110l101 -149h-83l-58 97h-30 l-59 -97h-82z" />
<glyph unicode="&#x177;" horiz-adv-x="1041" d="M66 0zM213 0v145h521q49 0 71.5 15.5t22.5 46.5v34h-518q-68 0 -114.5 13t-75 38.5t-41.5 63t-13 86.5v297h149v-301q0 -31 22.5 -46.5t71.5 -15.5h519v363h149v-538q0 -49 -13 -86.5t-41.5 -63t-75.5 -38.5t-114 -13h-520zM364 787l101 149h110l101 -149h-83l-58 97h-30 l-59 -97h-82z" />
<glyph unicode="&#x178;" horiz-adv-x="1041" d="M66 0zM213 0v145h521q49 0 71.5 15.5t22.5 46.5v34h-518q-68 0 -114.5 13t-75 38.5t-41.5 63t-13 86.5v297h149v-301q0 -31 22.5 -46.5t71.5 -15.5h519v363h149v-538q0 -49 -13 -86.5t-41.5 -63t-75.5 -38.5t-114 -13h-520zM582 812v124h94v-124h-94zM365 812v124h95 v-124h-95z" />
<glyph unicode="&#x179;" horiz-adv-x="1023" d="M45 0zM123 0q-38 0 -58 22.5t-20 51.5q0 19 9 36.5t26 30.5l616 453h-639v145h840q38 0 57.5 -23t19.5 -52q0 -18 -8.5 -35.5t-25.5 -30.5l-616 -453h645v-145h-846zM396 794v65l291 65v-86z" />
<glyph unicode="&#x17a;" horiz-adv-x="1023" d="M45 0zM123 0q-38 0 -58 22.5t-20 51.5q0 19 9 36.5t26 30.5l616 453h-639v145h840q38 0 57.5 -23t19.5 -52q0 -18 -8.5 -35.5t-25.5 -30.5l-616 -453h645v-145h-846zM396 794v65l291 65v-86z" />
<glyph unicode="&#x17b;" horiz-adv-x="1023" d="M45 0zM123 0q-38 0 -58 22.5t-20 51.5q0 19 9 36.5t26 30.5l616 453h-639v145h840q38 0 57.5 -23t19.5 -52q0 -18 -8.5 -35.5t-25.5 -30.5l-616 -453h645v-145h-846zM464 812v124h95v-124h-95z" />
<glyph unicode="&#x17c;" horiz-adv-x="1023" d="M45 0zM123 0q-38 0 -58 22.5t-20 51.5q0 19 9 36.5t26 30.5l616 453h-639v145h840q38 0 57.5 -23t19.5 -52q0 -18 -8.5 -35.5t-25.5 -30.5l-616 -453h645v-145h-846zM464 812v124h95v-124h-95z" />
<glyph unicode="&#x17d;" horiz-adv-x="1023" d="M45 0zM123 0q-38 0 -58 22.5t-20 51.5q0 19 9 36.5t26 30.5l616 453h-639v145h840q38 0 57.5 -23t19.5 -52q0 -18 -8.5 -35.5t-25.5 -30.5l-616 -453h645v-145h-846zM455 787l-100 149h82l59 -98h30l57 98h84l-102 -149h-110z" />
<glyph unicode="&#x17e;" horiz-adv-x="1023" d="M45 0zM123 0q-38 0 -58 22.5t-20 51.5q0 19 9 36.5t26 30.5l616 453h-639v145h840q38 0 57.5 -23t19.5 -52q0 -18 -8.5 -35.5t-25.5 -30.5l-616 -453h645v-145h-846zM455 787l-100 149h82l59 -98h30l57 98h84l-102 -149h-110z" />
<glyph unicode="&#x192;" horiz-adv-x="393" d="M260 320v-330q0 -78 -40 -110.5t-130 -32.5h-39v106q32 1 50 5.5t26.5 14.5t10 25.5t1.5 38.5v283h-103v105h103v170q0 78 40 111t130 33h39v-108q-30 0 -47.5 -3.5t-26.5 -13t-11.5 -25.5t-2.5 -41v-123h97v-105h-97z" />
<glyph unicode="&#x218;" horiz-adv-x="1005" d="M62 0zM62 0v145h640q49 0 71.5 15.5t22.5 46.5v76q0 31 -22.5 46.5t-71.5 15.5h-426q-214 0 -214 159v93q0 142 212 142h641v-145h-646q-33 0 -45 -6.5t-12 -20.5v-44q0 -18 12 -25.5t46 -7.5h431q67 0 114 -13t75.5 -38.5t41.5 -63t13 -86.5v-88q0 -49 -13 -86.5 t-41.5 -63t-75.5 -38.5t-114 -13h-639zM455 -228l-5 162h105l-5 -162h-95z" />
<glyph unicode="&#x219;" horiz-adv-x="1005" d="M62 0zM62 0v145h640q49 0 71.5 15.5t22.5 46.5v76q0 31 -22.5 46.5t-71.5 15.5h-426q-214 0 -214 159v93q0 142 212 142h641v-145h-646q-33 0 -45 -6.5t-12 -20.5v-44q0 -18 12 -25.5t46 -7.5h431q67 0 114 -13t75.5 -38.5t41.5 -63t13 -86.5v-88q0 -49 -13 -86.5 t-41.5 -63t-75.5 -38.5t-114 -13h-639zM455 -228l-5 162h105l-5 -162h-95z" />
<glyph unicode="&#x21a;" horiz-adv-x="933" d="M9 0zM392 0v594h-383v145h911v-145h-383v-594h-145zM419 -228l-5 162h105l-5 -162h-95z" />
<glyph unicode="&#x21b;" horiz-adv-x="933" d="M9 0zM392 0v594h-383v145h911v-145h-383v-594h-145zM419 -228l-5 162h105l-5 -162h-95z" />
<glyph unicode="&#x2c6;" horiz-adv-x="444" d="M66 787l101 149h110l101 -149h-83l-58 97h-30l-59 -97h-82z" />
<glyph unicode="&#x2c7;" horiz-adv-x="444" d="M166 787l-100 149h82l59 -98h30l57 98h84l-102 -149h-110z" />
<glyph unicode="&#x2d8;" horiz-adv-x="445" d="M198 787q-37 0 -62 16t-40.5 39t-22.5 48.5t-7 45.5h75q0 -15 3.5 -31.5t12 -31t22.5 -24t34 -9.5h25q19 0 32 9.5t20.5 24t11 31t3.5 31.5h74q0 -20 -6.5 -45.5t-21.5 -48.5t-39 -39t-60 -16h-54z" />
<glyph unicode="&#x2d9;" horiz-adv-x="227" d="M66 812v124h95v-124h-95z" />
<glyph unicode="&#x2da;" horiz-adv-x="416" d="M125 851q0 -22 9.5 -29.5t32.5 -7.5h81q24 0 33.5 8.5t9.5 28.5v17q0 18 -9 27.5t-30 9.5h-85q-25 0 -33.5 -8.5t-8.5 -28.5v-17zM167 759q-101 0 -101 82v36q0 85 101 85h80q103 0 103 -85v-36q0 -82 -103 -82h-80z" />
<glyph unicode="&#x2db;" horiz-adv-x="257" d="M105 -182q-15 0 -29.5 4.5t-26.5 13t-19.5 20t-7.5 26.5q0 14 8 30.5t27 34.5l56 53h62l-72 -69q-13 -12 -13 -22q0 -8 6.5 -11.5t14.5 -3.5h129v-76h-135z" />
<glyph unicode="&#x2dc;" horiz-adv-x="423" d="M66 826v71h291v-71h-291z" />
<glyph unicode="&#x2dd;" horiz-adv-x="461" d="M250 797l58 139h97l-92 -139h-63zM76 797l55 139h97l-88 -139h-64z" />
<glyph unicode="&#x326;" horiz-adv-x="367" d="M136 -228l-5 162h105l-5 -162h-95z" />
<glyph unicode="&#x394;" horiz-adv-x="1058" d="M454 708q14 22 34.5 32t40.5 10t40.5 -10t34.5 -32l454 -708h-1058zM266 145h526l-263 420z" />
<glyph unicode="&#x3a9;" horiz-adv-x="1035" d="M817 207q0 -31 22.5 -46.5t71.5 -15.5h62v-145h-61q-68 0 -114.5 12.5t-75 36t-41.5 57t-13 75.5v40q0 44 14 67t42 43l68 48q21 15 26.5 28.5t5.5 36.5v88q0 31 -22.5 46.5t-71.5 15.5h-425q-49 0 -71.5 -15.5t-22.5 -46.5v-88q0 -23 5.5 -36.5t26.5 -28.5l68 -48 q28 -20 42 -43t14 -67v-40q0 -42 -13 -75.5t-41.5 -57t-75.5 -36t-114 -12.5h-61v145h62q49 0 71.5 15.5t22.5 46.5v11q0 17 -4.5 24.5t-20.5 18.5l-74 47q-17 10 -28 20t-17.5 22t-9 27t-2.5 35v126q0 49 13 86.5t41.5 63t75 38.5t114.5 13h423q67 0 114 -13t75.5 -38.5 t41.5 -63t13 -86.5v-126q0 -20 -2.5 -35t-9 -27t-17.5 -22t-28 -20l-74 -47q-16 -11 -20.5 -18.5t-4.5 -24.5v-11z" />
<glyph unicode="&#x3bc;" horiz-adv-x="830" d="M66 -228v853h138v-443q0 -51 68 -51h246q69 0 69 51v443h138v-473q0 -24 2.5 -38.5t10 -22.5t20 -10.5t32.5 -2.5v-132q-56 0 -90 6.5t-54.5 18.5t-31 29.5t-19.5 38.5q-20 -39 -77 -39h-246q-49 0 -68 36v-264h-138z" />
<glyph unicode="&#x3c0;" horiz-adv-x="830" d="M725 152q0 -24 2.5 -38.5t10 -22.5t20 -10.5t32.5 -2.5v-132q-57 0 -96 8t-63 29.5t-34 59.5t-10 98v353h-383v-494h-138v494h-48v131h707v-473z" />
<glyph unicode="&#x400;" d="M66 0zM66 0v739h909v-145h-764v-97h625v-135h-625v-217h766v-145h-911zM335 838v86l291 -65v-65z" />
<glyph unicode="&#x401;" d="M66 0zM66 0v739h909v-145h-764v-97h625v-135h-625v-217h766v-145h-911zM572 812v124h94v-124h-94zM355 812v124h95v-124h-95z" />
<glyph unicode="&#x402;" horiz-adv-x="1030" d="M312 0v594h-303v145h952v-145h-504v-134q57 20 99 20h170q67 0 114 -13t75.5 -38.5t41.5 -63t13 -86.5v-78q0 -49 -13 -86.5t-41.5 -63t-75.5 -38.5t-114 -13h-129v145h130q89 0 94 56v72q0 31 -22.5 46.5t-71.5 15.5h-176q-48 0 -70 -14t-24 -42v-279h-145z" />
<glyph unicode="&#x403;" horiz-adv-x="751" d="M66 0zM66 0v739h660v-145h-515v-594h-145zM260 794v65l291 65v-86z" />
<glyph unicode="&#x404;" horiz-adv-x="1016" d="M306 0q-68 0 -114.5 13t-75 38.5t-41.5 63t-13 86.5v337q0 49 13 86.5t41.5 63t75 38.5t114.5 13h665v-145h-666q-49 0 -71.5 -15.5t-22.5 -46.5v-35h676v-135h-676v-155q0 -31 22.5 -46.5t71.5 -15.5h668v-145h-667z" />
<glyph unicode="&#x405;" horiz-adv-x="1005" d="M62 0zM62 0v145h640q49 0 71.5 15.5t22.5 46.5v76q0 31 -22.5 46.5t-71.5 15.5h-426q-214 0 -214 159v93q0 142 212 142h641v-145h-646q-33 0 -45 -6.5t-12 -20.5v-44q0 -18 12 -25.5t46 -7.5h431q67 0 114 -13t75.5 -38.5t41.5 -63t13 -86.5v-88q0 -49 -13 -86.5 t-41.5 -63t-75.5 -38.5t-114 -13h-639z" />
<glyph unicode="&#x406;" horiz-adv-x="293" d="M74 0zM74 0v739h145v-739h-145z" />
<glyph unicode="&#x407;" horiz-adv-x="293" d="M0 0zM74 0v739h145v-739h-145zM209 812v124h94v-124h-94zM-8 812v124h95v-124h-95z" />
<glyph unicode="&#x408;" horiz-adv-x="740" d="M12 0zM12 0v145h415q49 0 71.5 15.5t22.5 46.5v532h149v-538q0 -49 -13 -86.5t-41.5 -63t-75.5 -38.5t-114 -13h-414z" />
<glyph unicode="&#x409;" horiz-adv-x="1575" d="M14 0v145h122l289 594h447v-241h422q67 0 114 -13t75.5 -38.5t41.5 -63t13 -86.5v-96q0 -49 -13 -86.5t-41.5 -63t-75.5 -38.5t-114 -13h-567v594h-205l-289 -594h-219zM872 145h423q49 0 71.5 15.5t22.5 46.5v94q0 31 -22.5 46.5t-71.5 15.5h-423v-218z" />
<glyph unicode="&#x40a;" horiz-adv-x="1584" d="M66 0v739h145v-237h522v237h145v-241h422q67 0 114 -13t75.5 -38.5t41.5 -63t13 -86.5v-96q0 -49 -13 -86.5t-41.5 -63t-75.5 -38.5t-114 -13h-567v367h-522v-367h-145zM878 145h423q49 0 71.5 15.5t22.5 46.5v94q0 31 -22.5 46.5t-71.5 15.5h-423v-218z" />
<glyph unicode="&#x40b;" horiz-adv-x="1030" d="M312 0v594h-303v145h952v-145h-504v-134q57 20 99 20h170q67 0 114 -13t75.5 -38.5t41.5 -63t13 -86.5v-279h-149v273q0 31 -22.5 46.5t-71.5 15.5h-176q-48 0 -70 -14t-24 -42v-279h-145z" />
<glyph unicode="&#x40c;" horiz-adv-x="1014" d="M66 0zM66 0v739h145v-278h88l449 278h276l-579 -342l614 -397h-268l-492 333h-88v-333h-145zM391 794v65l291 65v-86z" />
<glyph unicode="&#x40d;" horiz-adv-x="1043" d="M66 0zM183 7q-11 -9 -24 -13t-25 -4q-27 0 -47.5 19.5t-20.5 54.5v675h145v-530l649 523q11 9 24 13t25 4q27 0 47.5 -19.5t20.5 -54.5v-675h-145v530zM346 838v86l291 -65v-65z" />
<glyph unicode="&#x40e;" horiz-adv-x="1203" d="M24 0zM24 0l494 370l-493 369h236l366 -280l367 280h236l-970 -739h-236zM577 787q-37 0 -62 16t-40.5 39t-22.5 48.5t-7 45.5h75q0 -15 3.5 -31.5t12 -31t22.5 -24t34 -9.5h25q19 0 32 9.5t20.5 24t11 31t3.5 31.5h74q0 -20 -6.5 -45.5t-21.5 -48.5t-39 -39t-60 -16h-54 z" />
<glyph unicode="&#x40f;" horiz-adv-x="1042" d="M66 0v739h145v-594h620v594h145v-739h-380v-226h-145v226h-385z" />
<glyph unicode="&#x410;" horiz-adv-x="1039" d="M64 0zM64 0v488q0 121 70.5 186t214.5 65h341q144 0 214.5 -65t70.5 -186v-488h-145v236h-621v-236h-145zM209 371h621v117q0 27 -6.5 46.5t-23 33t-43.5 20t-68 6.5h-339q-41 0 -68 -6.5t-43.5 -20t-23 -33t-6.5 -46.5v-117z" />
<glyph unicode="&#x411;" horiz-adv-x="1002" d="M66 0v739h660v-145h-515v-96h522q67 0 114 -13t75.5 -38.5t41.5 -63t13 -86.5v-96q0 -49 -13 -86.5t-41.5 -63t-75.5 -38.5t-114 -13h-667zM211 145h523q49 0 71.5 15.5t22.5 46.5v94q0 31 -22.5 46.5t-71.5 15.5h-523v-218z" />
<glyph unicode="&#x412;" horiz-adv-x="1038" d="M66 0zM66 0v739h680q118 0 173 -38.5t55 -116.5v-105q0 -40 -22 -63.5t-53 -34.5q34 -11 55.5 -35.5t21.5 -72.5v-119q0 -72 -56 -113t-174 -41h-680zM211 145h530q45 0 67 10.5t22 42.5v70q0 23 -22.5 34t-64.5 11h-532v-168zM211 447h542q42 0 60 9.5t18 26.5v71 q0 20 -21 30t-59 10h-540v-147z" />
<glyph unicode="&#x413;" horiz-adv-x="751" d="M66 0v739h660v-145h-515v-594h-145z" />
<glyph unicode="&#x414;" horiz-adv-x="1065" d="M14 -228v373h122l289 594h497v-594h145v-373h-145v228h-763v-228h-145zM303 145h474v449h-255z" />
<glyph unicode="&#x415;" d="M66 0zM66 0v739h909v-145h-764v-97h625v-135h-625v-217h766v-145h-911z" />
<glyph unicode="&#x416;" horiz-adv-x="1634" d="M-48 0l618 395l-583 344h294l434 -278h25v278h145v-278h25l434 278h294l-583 -344l618 -395h-270l-493 333h-25v-333h-145v333h-25l-493 -333h-270z" />
<glyph unicode="&#x417;" horiz-adv-x="951" d="M286 0q-118 0 -174 41t-56 113v119q0 48 21.5 72.5t55.5 35.5q-31 11 -53 34.5t-22 63.5v105q0 78 55 116.5t173 38.5h609v-145h-614q-38 0 -59 -10t-21 -30v-71q0 -17 18 -26.5t60 -9.5h545v-134h-535q-42 0 -64.5 -11t-22.5 -34v-70q0 -32 22 -42.5t67 -10.5h608v-145 h-613z" />
<glyph unicode="&#x418;" horiz-adv-x="1043" d="M183 7q-11 -9 -24 -13t-25 -4q-27 0 -47.5 19.5t-20.5 54.5v675h145v-530l649 523q11 9 24 13t25 4q27 0 47.5 -19.5t20.5 -54.5v-675h-145v530z" />
<glyph unicode="&#x419;" horiz-adv-x="1043" d="M66 0zM183 7q-11 -9 -24 -13t-25 -4q-27 0 -47.5 19.5t-20.5 54.5v675h145v-530l649 523q11 9 24 13t25 4q27 0 47.5 -19.5t20.5 -54.5v-675h-145v530zM497 787q-37 0 -62 16t-40.5 39t-22.5 48.5t-7 45.5h75q0 -15 3.5 -31.5t12 -31t22.5 -24t34 -9.5h25q19 0 32 9.5 t20.5 24t11 31t3.5 31.5h74q0 -20 -6.5 -45.5t-21.5 -48.5t-39 -39t-60 -16h-54z" />
<glyph unicode="&#x41a;" horiz-adv-x="1014" d="M66 0zM66 0v739h145v-278h88l449 278h276l-579 -342l614 -397h-268l-492 333h-88v-333h-145z" />
<glyph unicode="&#x41b;" horiz-adv-x="988" d="M14 0v145h122l289 594h497v-739h-145v594h-255l-289 -594h-219z" />
<glyph unicode="&#x41c;" horiz-adv-x="1422" d="M66 0zM66 0v679q0 35 21 52.5t48 17.5q17 0 34 -6t31 -21l511 -558l511 558q13 14 30.5 20.5t34.5 6.5q27 0 48 -17.5t21 -52.5v-679h-145v501l-448 -490q-21 -22 -52 -22t-52 22l-448 490v-501h-145z" />
<glyph unicode="&#x41d;" horiz-adv-x="1044" d="M66 0zM66 0v739h145v-237h622v237h145v-739h-145v367h-622v-367h-145z" />
<glyph unicode="&#x41e;" horiz-adv-x="1035" d="M62 0zM306 0q-68 0 -114.5 13t-75 38.5t-41.5 63t-13 86.5v337q0 49 13 86.5t41.5 63t75 38.5t114.5 13h423q67 0 114 -13t75.5 -38.5t41.5 -63t13 -86.5v-337q0 -49 -13 -86.5t-41.5 -63t-75.5 -38.5t-114 -13h-423zM211 207q0 -31 22.5 -46.5t71.5 -15.5h425 q49 0 71.5 15.5t22.5 46.5v325q0 31 -22.5 46.5t-71.5 15.5h-425q-49 0 -71.5 -15.5t-22.5 -46.5v-325z" />
<glyph unicode="&#x41f;" horiz-adv-x="1042" d="M66 0v739h910v-739h-145v594h-620v-594h-145z" />
<glyph unicode="&#x420;" horiz-adv-x="1002" d="M66 0zM66 0v739h667q67 0 114 -13t75.5 -38.5t41.5 -63t13 -86.5v-96q0 -49 -13 -86.5t-41.5 -63t-75.5 -38.5t-114 -13h-522v-241h-145zM211 376h523q49 0 71.5 15.5t22.5 46.5v94q0 31 -22.5 46.5t-71.5 15.5h-523v-218z" />
<glyph unicode="&#x421;" horiz-adv-x="1016" d="M62 0zM306 0q-68 0 -114.5 13t-75 38.5t-41.5 63t-13 86.5v337q0 49 13 86.5t41.5 63t75 38.5t114.5 13h665v-145h-666q-49 0 -71.5 -15.5t-22.5 -46.5v-325q0 -31 22.5 -46.5t71.5 -15.5h668v-145h-667z" />
<glyph unicode="&#x422;" horiz-adv-x="933" d="M9 0zM392 0v594h-383v145h911v-145h-383v-594h-145z" />
<glyph unicode="&#x423;" horiz-adv-x="1203" d="M24 0l494 370l-493 369h236l366 -280l367 280h236l-970 -739h-236z" />
<glyph unicode="&#x424;" horiz-adv-x="997" d="M291 100q-68 0 -114.5 13t-75 38.5t-41.5 63t-13 86.5v137q0 49 13 86.5t41.5 63t75 38.5t114.5 13h139v100h145v-100h139q67 0 114 -13t75.5 -38.5t41.5 -63t13 -86.5v-137q0 -49 -13 -86.5t-41.5 -63t-75.5 -38.5t-114 -13h-139v-100h-145v100h-139zM575 245h140 q49 0 71.5 15.5t22.5 46.5v125q0 31 -22.5 46.5t-71.5 15.5h-140v-249zM196 307q0 -31 22.5 -46.5t71.5 -15.5h140v249h-140q-49 0 -71.5 -15.5t-22.5 -46.5v-125z" />
<glyph unicode="&#x425;" horiz-adv-x="1262" d="M24 0zM24 0l494 370l-493 369h236l366 -280l367 280h236l-489 -366l499 -373h-235l-373 284l-372 -284h-236z" />
<glyph unicode="&#x426;" horiz-adv-x="1121" d="M66 0v739h145v-594h620v594h145v-594h145v-373h-145v228h-910z" />
<glyph unicode="&#x427;" horiz-adv-x="1034" d="M308 260q-68 0 -114.5 13t-75 38.5t-41.5 63t-13 86.5v278h149v-272q0 -31 22.5 -46.5t71.5 -15.5h424q49 0 71.5 15.5t22.5 46.5v272h145v-739h-145v280q-57 -20 -99 -20h-418z" />
<glyph unicode="&#x428;" horiz-adv-x="1342" d="M66 0v739h145v-594h394v594h145v-594h381v594h145v-739h-1210z" />
<glyph unicode="&#x429;" horiz-adv-x="1421" d="M66 0v739h145v-594h394v594h145v-594h381v594h145v-594h145v-373h-145v228h-1210z" />
<glyph unicode="&#x42a;" horiz-adv-x="1081" d="M155 0v594h-155v145h300v-241h512q67 0 114 -13t75.5 -38.5t41.5 -63t13 -86.5v-96q0 -49 -13 -86.5t-41.5 -63t-75.5 -38.5t-114 -13h-657zM300 145h513q49 0 71.5 15.5t22.5 46.5v94q0 31 -22.5 46.5t-71.5 15.5h-513v-218z" />
<glyph unicode="&#x42b;" horiz-adv-x="1295" d="M66 0zM211 145h523q49 0 71.5 15.5t22.5 46.5v94q0 31 -22.5 46.5t-71.5 15.5h-523v-218zM66 0v739h145v-241h522q67 0 114 -13t75.5 -38.5t41.5 -63t13 -86.5v-96q0 -49 -13 -86.5t-41.5 -63t-75.5 -38.5t-114 -13h-667zM1076 0v739h145v-739h-145z" />
<glyph unicode="&#x42c;" horiz-adv-x="1002" d="M211 145h523q49 0 71.5 15.5t22.5 46.5v94q0 31 -22.5 46.5t-71.5 15.5h-523v-218zM66 0v739h145v-241h522q67 0 114 -13t75.5 -38.5t41.5 -63t13 -86.5v-96q0 -49 -13 -86.5t-41.5 -63t-75.5 -38.5t-114 -13h-667z" />
<glyph unicode="&#x42d;" horiz-adv-x="1016" d="M42 0v145h668q49 0 71.5 15.5t22.5 46.5v155h-676v135h676v35q0 31 -22.5 46.5t-71.5 15.5h-666v145h665q67 0 114 -13t75.5 -38.5t41.5 -63t13 -86.5v-337q0 -49 -13 -86.5t-41.5 -63t-75.5 -38.5t-114 -13h-667z" />
<glyph unicode="&#x42e;" horiz-adv-x="1230" d="M74 0v739h145v-304h136v103q0 49 13 86.5t41.5 63t75 38.5t114.5 13h323q67 0 114 -13t75.5 -38.5t41.5 -63t13 -86.5v-337q0 -49 -13 -86.5t-41.5 -63t-75.5 -38.5t-114 -13h-323q-68 0 -114.5 13t-75 38.5t-41.5 63t-13 86.5v129h-136v-330h-145zM504 207 q0 -31 22.5 -46.5t71.5 -15.5h325q49 0 71.5 15.5t22.5 46.5v325q0 31 -22.5 46.5t-71.5 15.5h-325q-49 0 -71.5 -15.5t-22.5 -46.5v-325z" />
<glyph unicode="&#x42f;" horiz-adv-x="1008" d="M9 0l378 264h-112q-68 0 -114.5 13t-75 38.5t-41.5 63t-13 86.5v73q0 49 13 86.5t41.5 63t75 38.5t114.5 13h667v-739h-145v264h-178l-350 -264h-260zM180 456q0 -31 22.5 -46.5t71.5 -15.5h523v200h-523q-49 0 -71.5 -15.5t-22.5 -46.5v-76z" />
<glyph unicode="&#x430;" horiz-adv-x="1039" d="M64 0zM64 0v488q0 121 70.5 186t214.5 65h341q144 0 214.5 -65t70.5 -186v-488h-145v236h-621v-236h-145zM209 371h621v117q0 27 -6.5 46.5t-23 33t-43.5 20t-68 6.5h-339q-41 0 -68 -6.5t-43.5 -20t-23 -33t-6.5 -46.5v-117z" />
<glyph unicode="&#x431;" horiz-adv-x="1002" d="M66 0zM66 0v739h660v-145h-515v-96h522q67 0 114 -13t75.5 -38.5t41.5 -63t13 -86.5v-96q0 -49 -13 -86.5t-41.5 -63t-75.5 -38.5t-114 -13h-667zM211 145h523q49 0 71.5 15.5t22.5 46.5v94q0 31 -22.5 46.5t-71.5 15.5h-523v-218z" />
<glyph unicode="&#x432;" horiz-adv-x="1038" d="M66 0zM66 0v739h680q118 0 173 -38.5t55 -116.5v-105q0 -40 -22 -63.5t-53 -34.5q34 -11 55.5 -35.5t21.5 -72.5v-119q0 -72 -56 -113t-174 -41h-680zM211 145h530q45 0 67 10.5t22 42.5v70q0 23 -22.5 34t-64.5 11h-532v-168zM211 447h542q42 0 60 9.5t18 26.5v71 q0 20 -21 30t-59 10h-540v-147z" />
<glyph unicode="&#x433;" horiz-adv-x="751" d="M66 0zM66 0v739h660v-145h-515v-594h-145z" />
<glyph unicode="&#x434;" horiz-adv-x="1065" d="M14 0zM14 -228v373h122l289 594h497v-594h145v-373h-145v228h-763v-228h-145zM303 145h474v449h-255z" />
<glyph unicode="&#x435;" d="M66 0zM66 0v739h909v-145h-764v-97h625v-135h-625v-217h766v-145h-911z" />
<glyph unicode="&#x436;" horiz-adv-x="1634" d="M0 0zM-48 0l618 395l-583 344h294l434 -278h25v278h145v-278h25l434 278h294l-583 -344l618 -395h-270l-493 333h-25v-333h-145v333h-25l-493 -333h-270z" />
<glyph unicode="&#x437;" horiz-adv-x="951" d="M56 0zM286 0q-118 0 -174 41t-56 113v119q0 48 21.5 72.5t55.5 35.5q-31 11 -53 34.5t-22 63.5v105q0 78 55 116.5t173 38.5h609v-145h-614q-38 0 -59 -10t-21 -30v-71q0 -17 18 -26.5t60 -9.5h545v-134h-535q-42 0 -64.5 -11t-22.5 -34v-70q0 -32 22 -42.5t67 -10.5h608 v-145h-613z" />
<glyph unicode="&#x438;" horiz-adv-x="1043" d="M66 0zM183 7q-11 -9 -24 -13t-25 -4q-27 0 -47.5 19.5t-20.5 54.5v675h145v-530l649 523q11 9 24 13t25 4q27 0 47.5 -19.5t20.5 -54.5v-675h-145v530z" />
<glyph unicode="&#x439;" horiz-adv-x="1043" d="M66 0zM183 7q-11 -9 -24 -13t-25 -4q-27 0 -47.5 19.5t-20.5 54.5v675h145v-530l649 523q11 9 24 13t25 4q27 0 47.5 -19.5t20.5 -54.5v-675h-145v530zM497 787q-37 0 -62 16t-40.5 39t-22.5 48.5t-7 45.5h75q0 -15 3.5 -31.5t12 -31t22.5 -24t34 -9.5h25q19 0 32 9.5 t20.5 24t11 31t3.5 31.5h74q0 -20 -6.5 -45.5t-21.5 -48.5t-39 -39t-60 -16h-54z" />
<glyph unicode="&#x43a;" horiz-adv-x="1014" d="M66 0zM66 0v739h145v-278h88l449 278h276l-579 -342l614 -397h-268l-492 333h-88v-333h-145z" />
<glyph unicode="&#x43b;" horiz-adv-x="988" d="M14 0zM14 0v145h122l289 594h497v-739h-145v594h-255l-289 -594h-219z" />
<glyph unicode="&#x43c;" horiz-adv-x="1422" d="M66 0zM66 0v679q0 35 21 52.5t48 17.5q17 0 34 -6t31 -21l511 -558l511 558q13 14 30.5 20.5t34.5 6.5q27 0 48 -17.5t21 -52.5v-679h-145v501l-448 -490q-21 -22 -52 -22t-52 22l-448 490v-501h-145z" />
<glyph unicode="&#x43d;" horiz-adv-x="1044" d="M66 0zM66 0v739h145v-237h622v237h145v-739h-145v367h-622v-367h-145z" />
<glyph unicode="&#x43e;" horiz-adv-x="1035" d="M62 0zM306 0q-68 0 -114.5 13t-75 38.5t-41.5 63t-13 86.5v337q0 49 13 86.5t41.5 63t75 38.5t114.5 13h423q67 0 114 -13t75.5 -38.5t41.5 -63t13 -86.5v-337q0 -49 -13 -86.5t-41.5 -63t-75.5 -38.5t-114 -13h-423zM211 207q0 -31 22.5 -46.5t71.5 -15.5h425 q49 0 71.5 15.5t22.5 46.5v325q0 31 -22.5 46.5t-71.5 15.5h-425q-49 0 -71.5 -15.5t-22.5 -46.5v-325z" />
<glyph unicode="&#x43f;" horiz-adv-x="1042" d="M66 0zM66 0v739h910v-739h-145v594h-620v-594h-145z" />
<glyph unicode="&#x440;" horiz-adv-x="1002" d="M66 0zM66 0v739h667q67 0 114 -13t75.5 -38.5t41.5 -63t13 -86.5v-96q0 -49 -13 -86.5t-41.5 -63t-75.5 -38.5t-114 -13h-522v-241h-145zM211 376h523q49 0 71.5 15.5t22.5 46.5v94q0 31 -22.5 46.5t-71.5 15.5h-523v-218z" />
<glyph unicode="&#x441;" horiz-adv-x="1016" d="M62 0zM306 0q-68 0 -114.5 13t-75 38.5t-41.5 63t-13 86.5v337q0 49 13 86.5t41.5 63t75 38.5t114.5 13h665v-145h-666q-49 0 -71.5 -15.5t-22.5 -46.5v-325q0 -31 22.5 -46.5t71.5 -15.5h668v-145h-667z" />
<glyph unicode="&#x442;" horiz-adv-x="933" d="M9 0zM392 0v594h-383v145h911v-145h-383v-594h-145z" />
<glyph unicode="&#x443;" horiz-adv-x="1203" d="M24 0zM24 0l494 370l-493 369h236l366 -280l367 280h236l-970 -739h-236z" />
<glyph unicode="&#x444;" horiz-adv-x="997" d="M47 0zM291 100q-68 0 -114.5 13t-75 38.5t-41.5 63t-13 86.5v137q0 49 13 86.5t41.5 63t75 38.5t114.5 13h139v100h145v-100h139q67 0 114 -13t75.5 -38.5t41.5 -63t13 -86.5v-137q0 -49 -13 -86.5t-41.5 -63t-75.5 -38.5t-114 -13h-139v-100h-145v100h-139zM575 245h140 q49 0 71.5 15.5t22.5 46.5v125q0 31 -22.5 46.5t-71.5 15.5h-140v-249zM196 307q0 -31 22.5 -46.5t71.5 -15.5h140v249h-140q-49 0 -71.5 -15.5t-22.5 -46.5v-125z" />
<glyph unicode="&#x445;" horiz-adv-x="1262" d="M24 0zM24 0l494 370l-493 369h236l366 -280l367 280h236l-489 -366l499 -373h-235l-373 284l-372 -284h-236z" />
<glyph unicode="&#x446;" horiz-adv-x="1121" d="M66 0zM66 0v739h145v-594h620v594h145v-594h145v-373h-145v228h-910z" />
<glyph unicode="&#x447;" horiz-adv-x="1034" d="M64 0zM308 260q-68 0 -114.5 13t-75 38.5t-41.5 63t-13 86.5v278h149v-272q0 -31 22.5 -46.5t71.5 -15.5h424q49 0 71.5 15.5t22.5 46.5v272h145v-739h-145v280q-57 -20 -99 -20h-418z" />
<glyph unicode="&#x448;" horiz-adv-x="1342" d="M66 0zM66 0v739h145v-594h394v594h145v-594h381v594h145v-739h-1210z" />
<glyph unicode="&#x449;" horiz-adv-x="1421" d="M66 0zM66 0v739h145v-594h394v594h145v-594h381v594h145v-594h145v-373h-145v228h-1210z" />
<glyph unicode="&#x44a;" horiz-adv-x="1081" d="M0 0zM155 0v594h-155v145h300v-241h512q67 0 114 -13t75.5 -38.5t41.5 -63t13 -86.5v-96q0 -49 -13 -86.5t-41.5 -63t-75.5 -38.5t-114 -13h-657zM300 145h513q49 0 71.5 15.5t22.5 46.5v94q0 31 -22.5 46.5t-71.5 15.5h-513v-218z" />
<glyph unicode="&#x44b;" horiz-adv-x="1295" d="M66 0zM211 145h523q49 0 71.5 15.5t22.5 46.5v94q0 31 -22.5 46.5t-71.5 15.5h-523v-218zM66 0v739h145v-241h522q67 0 114 -13t75.5 -38.5t41.5 -63t13 -86.5v-96q0 -49 -13 -86.5t-41.5 -63t-75.5 -38.5t-114 -13h-667zM1076 0v739h145v-739h-145z" />
<glyph unicode="&#x44c;" horiz-adv-x="1002" d="M66 0zM211 145h523q49 0 71.5 15.5t22.5 46.5v94q0 31 -22.5 46.5t-71.5 15.5h-523v-218zM66 0v739h145v-241h522q67 0 114 -13t75.5 -38.5t41.5 -63t13 -86.5v-96q0 -49 -13 -86.5t-41.5 -63t-75.5 -38.5t-114 -13h-667z" />
<glyph unicode="&#x44d;" horiz-adv-x="1016" d="M42 0zM42 0v145h668q49 0 71.5 15.5t22.5 46.5v155h-676v135h676v35q0 31 -22.5 46.5t-71.5 15.5h-666v145h665q67 0 114 -13t75.5 -38.5t41.5 -63t13 -86.5v-337q0 -49 -13 -86.5t-41.5 -63t-75.5 -38.5t-114 -13h-667z" />
<glyph unicode="&#x44e;" horiz-adv-x="1230" d="M74 0zM74 0v739h145v-304h136v103q0 49 13 86.5t41.5 63t75 38.5t114.5 13h323q67 0 114 -13t75.5 -38.5t41.5 -63t13 -86.5v-337q0 -49 -13 -86.5t-41.5 -63t-75.5 -38.5t-114 -13h-323q-68 0 -114.5 13t-75 38.5t-41.5 63t-13 86.5v129h-136v-330h-145zM504 207 q0 -31 22.5 -46.5t71.5 -15.5h325q49 0 71.5 15.5t22.5 46.5v325q0 31 -22.5 46.5t-71.5 15.5h-325q-49 0 -71.5 -15.5t-22.5 -46.5v-325z" />
<glyph unicode="&#x44f;" horiz-adv-x="1008" d="M9 0zM9 0l378 264h-112q-68 0 -114.5 13t-75 38.5t-41.5 63t-13 86.5v73q0 49 13 86.5t41.5 63t75 38.5t114.5 13h667v-739h-145v264h-178l-350 -264h-260zM180 456q0 -31 22.5 -46.5t71.5 -15.5h523v200h-523q-49 0 -71.5 -15.5t-22.5 -46.5v-76z" />
<glyph unicode="&#x450;" d="M66 0zM66 0v739h909v-145h-764v-97h625v-135h-625v-217h766v-145h-911zM335 838v86l291 -65v-65z" />
<glyph unicode="&#x451;" d="M66 0zM66 0v739h909v-145h-764v-97h625v-135h-625v-217h766v-145h-911zM572 812v124h94v-124h-94zM355 812v124h95v-124h-95z" />
<glyph unicode="&#x452;" horiz-adv-x="1030" d="M9 0zM312 0v594h-303v145h952v-145h-504v-134q57 20 99 20h170q67 0 114 -13t75.5 -38.5t41.5 -63t13 -86.5v-78q0 -49 -13 -86.5t-41.5 -63t-75.5 -38.5t-114 -13h-129v145h130q89 0 94 56v72q0 31 -22.5 46.5t-71.5 15.5h-176q-48 0 -70 -14t-24 -42v-279h-145z" />
<glyph unicode="&#x453;" horiz-adv-x="751" d="M66 0zM66 0v739h660v-145h-515v-594h-145zM260 794v65l291 65v-86z" />
<glyph unicode="&#x454;" horiz-adv-x="1016" d="M62 0zM306 0q-68 0 -114.5 13t-75 38.5t-41.5 63t-13 86.5v337q0 49 13 86.5t41.5 63t75 38.5t114.5 13h665v-145h-666q-49 0 -71.5 -15.5t-22.5 -46.5v-35h676v-135h-676v-155q0 -31 22.5 -46.5t71.5 -15.5h668v-145h-667z" />
<glyph unicode="&#x455;" horiz-adv-x="1005" d="M62 0zM62 0v145h640q49 0 71.5 15.5t22.5 46.5v76q0 31 -22.5 46.5t-71.5 15.5h-426q-214 0 -214 159v93q0 142 212 142h641v-145h-646q-33 0 -45 -6.5t-12 -20.5v-44q0 -18 12 -25.5t46 -7.5h431q67 0 114 -13t75.5 -38.5t41.5 -63t13 -86.5v-88q0 -49 -13 -86.5 t-41.5 -63t-75.5 -38.5t-114 -13h-639z" />
<glyph unicode="&#x456;" horiz-adv-x="293" d="M74 0zM74 0v739h145v-739h-145z" />
<glyph unicode="&#x457;" horiz-adv-x="293" d="M0 0zM74 0v739h145v-739h-145zM209 812v124h94v-124h-94zM-8 812v124h95v-124h-95z" />
<glyph unicode="&#x458;" horiz-adv-x="740" d="M12 0zM12 0v145h415q49 0 71.5 15.5t22.5 46.5v532h149v-538q0 -49 -13 -86.5t-41.5 -63t-75.5 -38.5t-114 -13h-414z" />
<glyph unicode="&#x459;" horiz-adv-x="1575" d="M14 0zM14 0v145h122l289 594h447v-241h422q67 0 114 -13t75.5 -38.5t41.5 -63t13 -86.5v-96q0 -49 -13 -86.5t-41.5 -63t-75.5 -38.5t-114 -13h-567v594h-205l-289 -594h-219zM872 145h423q49 0 71.5 15.5t22.5 46.5v94q0 31 -22.5 46.5t-71.5 15.5h-423v-218z" />
<glyph unicode="&#x45a;" horiz-adv-x="1584" d="M66 0zM66 0v739h145v-237h522v237h145v-241h422q67 0 114 -13t75.5 -38.5t41.5 -63t13 -86.5v-96q0 -49 -13 -86.5t-41.5 -63t-75.5 -38.5t-114 -13h-567v367h-522v-367h-145zM878 145h423q49 0 71.5 15.5t22.5 46.5v94q0 31 -22.5 46.5t-71.5 15.5h-423v-218z" />
<glyph unicode="&#x45b;" horiz-adv-x="1030" d="M9 0zM312 0v594h-303v145h952v-145h-504v-134q57 20 99 20h170q67 0 114 -13t75.5 -38.5t41.5 -63t13 -86.5v-279h-149v273q0 31 -22.5 46.5t-71.5 15.5h-176q-48 0 -70 -14t-24 -42v-279h-145z" />
<glyph unicode="&#x45c;" horiz-adv-x="1014" d="M66 0zM66 0v739h145v-278h88l449 278h276l-579 -342l614 -397h-268l-492 333h-88v-333h-145zM391 794v65l291 65v-86z" />
<glyph unicode="&#x45d;" horiz-adv-x="1043" d="M66 0zM183 7q-11 -9 -24 -13t-25 -4q-27 0 -47.5 19.5t-20.5 54.5v675h145v-530l649 523q11 9 24 13t25 4q27 0 47.5 -19.5t20.5 -54.5v-675h-145v530zM346 838v86l291 -65v-65z" />
<glyph unicode="&#x45e;" horiz-adv-x="1203" d="M24 0zM24 0l494 370l-493 369h236l366 -280l367 280h236l-970 -739h-236zM577 787q-37 0 -62 16t-40.5 39t-22.5 48.5t-7 45.5h75q0 -15 3.5 -31.5t12 -31t22.5 -24t34 -9.5h25q19 0 32 9.5t20.5 24t11 31t3.5 31.5h74q0 -20 -6.5 -45.5t-21.5 -48.5t-39 -39t-60 -16h-54 z" />
<glyph unicode="&#x45f;" horiz-adv-x="1042" d="M66 0zM66 0v739h145v-594h620v594h145v-739h-380v-226h-145v226h-385z" />
<glyph unicode="&#x1e80;" horiz-adv-x="1467" d="M64 0zM308 0q-68 0 -114.5 13t-75 38.5t-41.5 63t-13 86.5v538h149v-532q0 -31 22.5 -46.5t71.5 -15.5h355v594h145v-594h353q49 0 71.5 15.5t22.5 46.5v532h149v-538q0 -49 -13 -86.5t-41.5 -63t-75.5 -38.5t-114 -13h-851zM558 838v86l291 -65v-65z" />
<glyph unicode="&#x1e81;" horiz-adv-x="1467" d="M64 0zM308 0q-68 0 -114.5 13t-75 38.5t-41.5 63t-13 86.5v538h149v-532q0 -31 22.5 -46.5t71.5 -15.5h355v594h145v-594h353q49 0 71.5 15.5t22.5 46.5v532h149v-538q0 -49 -13 -86.5t-41.5 -63t-75.5 -38.5t-114 -13h-851zM558 838v86l291 -65v-65z" />
<glyph unicode="&#x1e82;" horiz-adv-x="1467" d="M64 0zM308 0q-68 0 -114.5 13t-75 38.5t-41.5 63t-13 86.5v538h149v-532q0 -31 22.5 -46.5t71.5 -15.5h355v594h145v-594h353q49 0 71.5 15.5t22.5 46.5v532h149v-538q0 -49 -13 -86.5t-41.5 -63t-75.5 -38.5t-114 -13h-851zM618 794v65l291 65v-86z" />
<glyph unicode="&#x1e83;" horiz-adv-x="1467" d="M64 0zM308 0q-68 0 -114.5 13t-75 38.5t-41.5 63t-13 86.5v538h149v-532q0 -31 22.5 -46.5t71.5 -15.5h355v594h145v-594h353q49 0 71.5 15.5t22.5 46.5v532h149v-538q0 -49 -13 -86.5t-41.5 -63t-75.5 -38.5t-114 -13h-851zM618 794v65l291 65v-86z" />
<glyph unicode="&#x1e84;" horiz-adv-x="1467" d="M64 0zM308 0q-68 0 -114.5 13t-75 38.5t-41.5 63t-13 86.5v538h149v-532q0 -31 22.5 -46.5t71.5 -15.5h355v594h145v-594h353q49 0 71.5 15.5t22.5 46.5v532h149v-538q0 -49 -13 -86.5t-41.5 -63t-75.5 -38.5t-114 -13h-851zM795 812v124h94v-124h-94zM578 812v124h95 v-124h-95z" />
<glyph unicode="&#x1e85;" horiz-adv-x="1467" d="M64 0zM308 0q-68 0 -114.5 13t-75 38.5t-41.5 63t-13 86.5v538h149v-532q0 -31 22.5 -46.5t71.5 -15.5h355v594h145v-594h353q49 0 71.5 15.5t22.5 46.5v532h149v-538q0 -49 -13 -86.5t-41.5 -63t-75.5 -38.5t-114 -13h-851zM795 812v124h94v-124h-94zM578 812v124h95 v-124h-95z" />
<glyph unicode="&#x1ef2;" horiz-adv-x="1041" d="M66 0zM213 0v145h521q49 0 71.5 15.5t22.5 46.5v34h-518q-68 0 -114.5 13t-75 38.5t-41.5 63t-13 86.5v297h149v-301q0 -31 22.5 -46.5t71.5 -15.5h519v363h149v-538q0 -49 -13 -86.5t-41.5 -63t-75.5 -38.5t-114 -13h-520zM345 838v86l291 -65v-65z" />
<glyph unicode="&#x1ef3;" horiz-adv-x="1041" d="M66 0zM213 0v145h521q49 0 71.5 15.5t22.5 46.5v34h-518q-68 0 -114.5 13t-75 38.5t-41.5 63t-13 86.5v297h149v-301q0 -31 22.5 -46.5t71.5 -15.5h519v363h149v-538q0 -49 -13 -86.5t-41.5 -63t-75.5 -38.5t-114 -13h-520zM345 838v86l291 -65v-65z" />
<glyph unicode="&#x2013;" horiz-adv-x="619" d="M20 320v105h579v-105h-579z" />
<glyph unicode="&#x2014;" horiz-adv-x="955" d="M20 320v105h915v-105h-915z" />
<glyph unicode="&#x2018;" horiz-adv-x="167" d="M72 536l-52 241h115l12 -241h-75z" />
<glyph unicode="&#x2019;" horiz-adv-x="167" d="M20 536l12 241h115l-52 -241h-75z" />
<glyph unicode="&#x201a;" horiz-adv-x="167" d="M20 -152l12 241h115l-52 -241h-75z" />
<glyph unicode="&#x201c;" horiz-adv-x="333" d="M238 536l-52 241h115l12 -241h-75zM72 536l-52 241h115l12 -241h-75z" />
<glyph unicode="&#x201d;" horiz-adv-x="333" d="M20 536l12 241h115l-52 -241h-75zM186 536l12 241h115l-52 -241h-75z" />
<glyph unicode="&#x201e;" horiz-adv-x="333" d="M20 -152l12 241h115l-52 -241h-75zM186 -152l12 241h115l-52 -241h-75z" />
<glyph unicode="&#x2020;" horiz-adv-x="487" d="M233 0l-31 460l-136 36l136 36l31 207h21l31 -207l136 -36l-136 -36l-31 -460h-21z" />
<glyph unicode="&#x2021;" horiz-adv-x="481" d="M231 0l-29 175l-135 29v11l134 34v239l-135 38v11l136 27l29 174h20l28 -175l136 -31v-10l-134 -35v-238l134 -34v-12l-136 -28l-29 -175h-19z" />
<glyph unicode="&#x2022;" horiz-adv-x="927" d="M464 -60l-398 688h795z" />
<glyph unicode="&#x2026;" horiz-adv-x="1080" d="M66 0zM140 -3q-33 0 -53.5 20.5t-20.5 52.5q0 33 20.5 53.5t53.5 20.5q32 0 53 -20.5t21 -53.5q0 -32 -21 -52.5t-53 -20.5zM540 -3q-33 0 -53.5 20.5t-20.5 52.5q0 33 20.5 53.5t53.5 20.5q32 0 53 -20.5t21 -53.5q0 -32 -21 -52.5t-53 -20.5zM940 -3q-33 0 -53.5 20.5 t-20.5 52.5q0 33 20.5 53.5t53.5 20.5q32 0 53 -20.5t21 -53.5q0 -32 -21 -52.5t-53 -20.5z" />
<glyph unicode="&#x2030;" horiz-adv-x="1040" d="M779 115q0 -43 42 -43h46q43 0 43 42v99q0 43 -43 43h-46q-42 0 -42 -43v-98zM827 0q-112 0 -112 109v110q0 110 112 110h34q113 0 113 -110v-111q0 -108 -113 -108h-34zM174 0l324 739h73l-325 -739h-72zM132 525q0 -43 41 -43h46q42 0 42 42v100q0 42 -42 42h-46 q-41 0 -41 -42v-99zM179 410q-113 0 -113 109v110q0 110 113 110h33q114 0 114 -110v-111q0 -108 -114 -108h-33zM478 115q0 -43 42 -43h45q43 0 43 42v99q0 43 -43 43h-45q-42 0 -42 -43v-98zM525 0q-112 0 -112 109v110q0 110 112 110h34q113 0 113 -110v-111 q0 -108 -113 -108h-34z" />
<glyph unicode="&#x2039;" horiz-adv-x="307" d="M43 327q-12 7 -17.5 18.5t-5.5 23.5t6 23.5t17 18.5l244 145v-94l-173 -93l173 -94v-93z" />
<glyph unicode="&#x203a;" horiz-adv-x="307" d="M20 182v93l173 94l-173 93v94l244 -145q11 -7 17 -18.5t6 -23.5t-5.5 -23.5t-17.5 -18.5z" />
<glyph unicode="&#x2044;" horiz-adv-x="279" d="M-136 0l456 739h105l-457 -739h-104z" />
<glyph unicode="&#x2070;" horiz-adv-x="599" d="M46 331zM182 331q-75 0 -105.5 28.5t-30.5 85.5v181q0 56 30.5 84.5t105.5 28.5h228q76 0 106.5 -28.5t30.5 -84.5v-181q0 -57 -30.5 -85.5t-106.5 -28.5h-228zM137 448q0 -27 45 -27h229q44 0 44 27v175q0 27 -44 27h-229q-45 0 -45 -27v-175z" />
<glyph unicode="&#x2074;" horiz-adv-x="576" d="M30 331zM168 455q-32 0 -57.5 6t-43.5 20.5t-27.5 39t-9.5 61.5v157h89v-162q0 -21 11.5 -29.5t40.5 -8.5h232v117h90v-117h57v-84h-57v-124h-90v124h-235z" />
<glyph unicode="&#x2075;" horiz-adv-x="594" d="M44 331zM44 331v90h364q24 0 35.5 8t11.5 21v69h-294q-26 0 -47.5 4t-37 15.5t-24 30.5t-8.5 49v121h500v-89h-410v-30q0 -10 6 -13.5t23 -3.5h382v-158q0 -33 -10 -55t-28 -35t-43.5 -18.5t-56.5 -5.5h-363z" />
<glyph unicode="&#x2076;" horiz-adv-x="593" d="M46 331zM177 331q-73 0 -102 25t-29 69v209q0 55 31 80t91 25h308v-89h-308q-32 0 -32 -21v-22h277q76 0 105 -26.5t29 -80.5v-55q0 -57 -30 -85.5t-105 -28.5h-235zM136 448q0 -14 8.5 -20.5t31.5 -6.5h237q44 0 44 27v53q0 25 -44 25h-277v-78z" />
<glyph unicode="&#x2077;" horiz-adv-x="567" d="M33 331zM33 331l353 319h-352v89h448q24 0 37 -16.5t13 -37.5q0 -10 -4.5 -21t-12.5 -19l-346 -314h-136z" />
<glyph unicode="&#x2078;" horiz-adv-x="600" d="M46 331zM176 331q-67 0 -98.5 23.5t-31.5 65.5v63q0 24 9 37.5t23 21.5q-14 8 -22.5 19.5t-8.5 32.5v56q0 45 31 67t98 22h243q66 0 97 -22t31 -67v-56q0 -20 -9 -32t-22 -20q15 -8 23.5 -22t8.5 -37v-63q0 -42 -31.5 -65.5t-97.5 -23.5h-243zM136 597q0 -7 8 -10.5 t28 -3.5h251q36 0 36 14v38q0 15 -37 15h-249q-37 0 -37 -15v-38zM136 448q0 -27 42 -27h238q42 0 42 27v32q0 19 -41 19h-240q-41 0 -41 -19v-32z" />
<glyph unicode="&#x2079;" horiz-adv-x="594" d="M41 331zM111 331v90h309q16 0 24 4.5t8 16.5v26h-277q-38 0 -64 6.5t-41.5 20t-22 33.5t-6.5 47v51q0 56 29 84.5t105 28.5h237q73 0 101.5 -25t28.5 -69v-208q0 -55 -31 -80.5t-91 -25.5h-309zM131 574q0 -25 44 -25h277v74q0 14 -8.5 20.5t-31.5 6.5h-237 q-44 0 -44 -27v-49z" />
<glyph unicode="&#x2080;" horiz-adv-x="599" d="M182 0q-75 0 -105.5 28.5t-30.5 85.5v181q0 56 30.5 84.5t105.5 28.5h228q76 0 106.5 -28.5t30.5 -84.5v-181q0 -57 -30.5 -85.5t-106.5 -28.5h-228zM137 117q0 -27 45 -27h229q44 0 44 27v175q0 27 -44 27h-229q-45 0 -45 -27v-175z" />
<glyph unicode="&#x2081;" horiz-adv-x="279" d="M143 0v282q0 19 -13.5 28t-35.5 9h-63v89h62q63 0 101 -27.5t38 -85.5v-295h-89z" />
<glyph unicode="&#x2082;" horiz-adv-x="583" d="M48 0v187q0 42 31.5 64.5t94.5 22.5h241q14 0 19.5 2.5t5.5 10.5v24q0 4 -5 6t-19 2h-321v89h318q120 0 120 -82v-50q0 -90 -121 -90h-238q-37 0 -37 -27v-69h396v-90h-485z" />
<glyph unicode="&#x2083;" horiz-adv-x="553" d="M37 0v90h333q21 0 31.5 4t10.5 18v37q0 19 -41 19h-293v84h297q20 0 28.5 3.5t8.5 10.5v38q0 15 -38 15h-335v89h333q66 0 97 -22t31 -67v-56q0 -21 -8.5 -32.5t-22.5 -19.5q15 -8 23.5 -21t8.5 -38v-63q0 -42 -31.5 -65.5t-97.5 -23.5h-335z" />
<glyph unicode="&#x2084;" horiz-adv-x="576" d="M168 124q-32 0 -57.5 6t-43.5 20.5t-27.5 39t-9.5 61.5v157h89v-162q0 -21 11.5 -29.5t40.5 -8.5h232v117h90v-117h57v-84h-57v-124h-90v124h-235z" />
<glyph unicode="&#x2085;" horiz-adv-x="594" d="M44 0v90h364q24 0 35.5 8t11.5 21v69h-294q-26 0 -47.5 4t-37 15.5t-24 30.5t-8.5 49v121h500v-89h-410v-30q0 -10 6 -13.5t23 -3.5h382v-158q0 -33 -10 -55t-28 -35t-43.5 -18.5t-56.5 -5.5h-363z" />
<glyph unicode="&#x2086;" horiz-adv-x="593" d="M177 0q-73 0 -102 25t-29 69v209q0 55 31 80t91 25h308v-89h-308q-32 0 -32 -21v-22h277q76 0 105 -26.5t29 -80.5v-55q0 -57 -30 -85.5t-105 -28.5h-235zM136 117q0 -14 8.5 -20.5t31.5 -6.5h237q44 0 44 27v53q0 25 -44 25h-277v-78z" />
<glyph unicode="&#x2087;" horiz-adv-x="567" d="M33 0l353 319h-352v89h448q24 0 37 -16.5t13 -37.5q0 -10 -4.5 -21t-12.5 -19l-346 -314h-136z" />
<glyph unicode="&#x2088;" horiz-adv-x="600" d="M176 0q-67 0 -98.5 23.5t-31.5 65.5v63q0 24 9 37.5t23 21.5q-14 8 -22.5 19.5t-8.5 32.5v56q0 45 31 67t98 22h243q66 0 97 -22t31 -67v-56q0 -20 -9 -32t-22 -20q15 -8 23.5 -22t8.5 -37v-63q0 -42 -31.5 -65.5t-97.5 -23.5h-243zM136 266q0 -7 8 -10.5t28 -3.5h251 q36 0 36 14v38q0 15 -37 15h-249q-37 0 -37 -15v-38zM136 117q0 -27 42 -27h238q42 0 42 27v32q0 19 -41 19h-240q-41 0 -41 -19v-32z" />
<glyph unicode="&#x2089;" horiz-adv-x="594" d="M111 0v90h309q16 0 24 4.5t8 16.5v26h-277q-38 0 -64 6.5t-41.5 20t-22 33.5t-6.5 47v51q0 56 29 84.5t105 28.5h237q73 0 101.5 -25t28.5 -69v-208q0 -55 -31 -80.5t-91 -25.5h-309zM131 243q0 -25 44 -25h277v74q0 14 -8.5 20.5t-31.5 6.5h-237q-44 0 -44 -27v-49z" />
<glyph unicode="&#x20ac;" horiz-adv-x="1074" d="M392 0q-166 0 -246 43t-80 121v410q0 37 24.5 67.5t68 52.5t103 33.5t130.5 11.5h616l-113 -145h-503q-177 0 -177 -79v-31h594l-76 -97h-518v-29h496l-76 -97h-420v-52q0 -64 177 -64h585v-145h-585z" />
<glyph unicode="&#x2122;" horiz-adv-x="821" d="M399 352v387h62l115 -278h4l111 278h64v-387h-66v210l-86 -210h-54l-85 210v-210h-65zM179 352v323h-113v64h290v-64h-111v-323h-66z" />
<glyph unicode="&#x2153;" horiz-adv-x="1127" d="M62 0zM174 331v282q0 19 -13.5 28t-35.5 9h-63v89h62q63 0 101 -27.5t38 -85.5v-295h-89zM160 0l456 739h105l-457 -739h-104zM601 0v90h333q21 0 31.5 4t10.5 18v37q0 19 -41 19h-293v84h297q20 0 28.5 3.5t8.5 10.5v38q0 15 -38 15h-335v89h333q66 0 97 -22t31 -67v-56 q0 -21 -8.5 -32.5t-22.5 -19.5q15 -8 23.5 -21t8.5 -38v-63q0 -42 -31.5 -65.5t-97.5 -23.5h-335z" />
<glyph unicode="&#x2154;" horiz-adv-x="1372" d="M62 0zM62 331v187q0 42 31.5 64.5t94.5 22.5h241q14 0 19.5 2.5t5.5 10.5v24q0 4 -5 6t-19 2h-321v89h318q120 0 120 -82v-50q0 -90 -121 -90h-238q-37 0 -37 -27v-69h396v-90h-485zM417 0l456 739h105l-457 -739h-104zM846 0v90h333q21 0 31.5 4t10.5 18v37q0 19 -41 19 h-293v84h297q20 0 28.5 3.5t8.5 10.5v38q0 15 -38 15h-335v89h333q66 0 97 -22t31 -67v-56q0 -21 -8.5 -32.5t-22.5 -19.5q15 -8 23.5 -21t8.5 -38v-63q0 -42 -31.5 -65.5t-97.5 -23.5h-335z" />
<glyph unicode="&#x215b;" horiz-adv-x="1119" d="M62 0zM174 331v282q0 19 -13.5 28t-35.5 9h-63v89h62q63 0 101 -27.5t38 -85.5v-295h-89zM133 0l456 739h105l-457 -739h-104zM685 0q-67 0 -98.5 23.5t-31.5 65.5v63q0 24 9 37.5t23 21.5q-14 8 -22.5 19.5t-8.5 32.5v56q0 45 31 67t98 22h243q66 0 97 -22t31 -67v-56 q0 -20 -9 -32t-22 -20q15 -8 23.5 -22t8.5 -37v-63q0 -42 -31.5 -65.5t-97.5 -23.5h-243zM645 266q0 -7 8 -10.5t28 -3.5h251q36 0 36 14v38q0 15 -37 15h-249q-37 0 -37 -15v-38zM645 117q0 -27 42 -27h238q42 0 42 27v32q0 19 -41 19h-240q-41 0 -41 -19v-32z" />
<glyph unicode="&#x215c;" horiz-adv-x="1356" d="M62 0zM62 331v90h333q21 0 31.5 4t10.5 18v37q0 19 -41 19h-293v84h297q20 0 28.5 3.5t8.5 10.5v38q0 15 -38 15h-335v89h333q66 0 97 -22t31 -67v-56q0 -21 -8.5 -32.5t-22.5 -19.5q15 -8 23.5 -21t8.5 -38v-63q0 -42 -31.5 -65.5t-97.5 -23.5h-335zM381 0l456 739h105 l-457 -739h-104zM922 0q-67 0 -98.5 23.5t-31.5 65.5v63q0 24 9 37.5t23 21.5q-14 8 -22.5 19.5t-8.5 32.5v56q0 45 31 67t98 22h243q66 0 97 -22t31 -67v-56q0 -20 -9 -32t-22 -20q15 -8 23.5 -22t8.5 -37v-63q0 -42 -31.5 -65.5t-97.5 -23.5h-243zM882 266q0 -7 8 -10.5 t28 -3.5h251q36 0 36 14v38q0 15 -37 15h-249q-37 0 -37 -15v-38zM882 117q0 -27 42 -27h238q42 0 42 27v32q0 19 -41 19h-240q-41 0 -41 -19v-32z" />
<glyph unicode="&#x215d;" horiz-adv-x="1378" d="M62 0zM62 331v90h364q24 0 35.5 8t11.5 21v69h-294q-26 0 -47.5 4t-37 15.5t-24 30.5t-8.5 49v121h500v-89h-410v-30q0 -10 6 -13.5t23 -3.5h382v-158q0 -33 -10 -55t-28 -35t-43.5 -18.5t-56.5 -5.5h-363zM403 0l456 739h105l-457 -739h-104zM944 0q-67 0 -98.5 23.5 t-31.5 65.5v63q0 24 9 37.5t23 21.5q-14 8 -22.5 19.5t-8.5 32.5v56q0 45 31 67t98 22h243q66 0 97 -22t31 -67v-56q0 -20 -9 -32t-22 -20q15 -8 23.5 -22t8.5 -37v-63q0 -42 -31.5 -65.5t-97.5 -23.5h-243zM904 266q0 -7 8 -10.5t28 -3.5h251q36 0 36 14v38q0 15 -37 15 h-249q-37 0 -37 -15v-38zM904 117q0 -27 42 -27h238q42 0 42 27v32q0 19 -41 19h-240q-41 0 -41 -19v-32z" />
<glyph unicode="&#x215e;" horiz-adv-x="1267" d="M62 0zM62 331l353 319h-352v89h448q24 0 37 -16.5t13 -37.5q0 -10 -4.5 -21t-12.5 -19l-346 -314h-136zM258 0l456 739h105l-457 -739h-104zM833 0q-67 0 -98.5 23.5t-31.5 65.5v63q0 24 9 37.5t23 21.5q-14 8 -22.5 19.5t-8.5 32.5v56q0 45 31 67t98 22h243q66 0 97 -22 t31 -67v-56q0 -20 -9 -32t-22 -20q15 -8 23.5 -22t8.5 -37v-63q0 -42 -31.5 -65.5t-97.5 -23.5h-243zM793 266q0 -7 8 -10.5t28 -3.5h251q36 0 36 14v38q0 15 -37 15h-249q-37 0 -37 -15v-38zM793 117q0 -27 42 -27h238q42 0 42 27v32q0 19 -41 19h-240q-41 0 -41 -19v-32z " />
<glyph unicode="&#x2202;" horiz-adv-x="527" d="M217 745q6 2 20 3t31 1q44 0 85.5 -17t73 -54t50.5 -94t19 -137q0 -90 -12 -172.5t-41 -146t-78 -101.5t-123 -38q-58 0 -98 16t-64.5 46.5t-35 75t-10.5 100.5q0 60 15 107.5t42 79.5t64 49t80 17q16 0 36 -3t39.5 -11t37 -21t28.5 -34q2 12 2.5 24t0.5 31 q0 76 -37.5 116t-93.5 40q-16 0 -31 -3v126zM363 277q-12 37 -38.5 58t-80.5 21q-42 0 -66.5 -32.5t-24.5 -97.5q0 -57 24.5 -84.5t64.5 -27.5q51 0 81 38t40 125z" />
<glyph unicode="&#x220f;" horiz-adv-x="785" d="M631 -83v808h-478v-808h-91v900h660v-900h-91z" />
<glyph unicode="&#x2211;" horiz-adv-x="650" d="M54 642q-14 16 -14 41q0 22 10.5 39t30.5 17h521v-90h-445l328 -369l-328 -369h445v-90h-521q-20 0 -30.5 17t-10.5 39q0 25 14 41l320 362z" />
<glyph unicode="&#x2212;" horiz-adv-x="653" d="M66 320v105h521v-105h-521z" />
<glyph unicode="&#x221a;" horiz-adv-x="754" d="M754 739l-402 -717q-9 -15 -23 -22.5t-29 -7.5t-30 8t-24 22l-127 214h-105v91h168l117 -218l338 630h117z" />
<glyph unicode="&#x221e;" horiz-adv-x="674" d="M337 276q-23 -40 -61 -63.5t-98 -23.5q-32 0 -60 11t-48.5 33t-32.5 54.5t-12 76.5t12 77.5t33 56t48.5 33.5t59.5 11q59 0 96 -24t63 -64q27 40 63.5 64t96.5 24q31 0 58.5 -11t48 -33.5t32.5 -56t12 -77.5t-12 -76.5t-32 -54.5t-48 -33t-59 -11q-61 0 -99 23.5 t-61 63.5zM293 362q-18 31 -40 51t-57 20q-38 0 -56.5 -19t-18.5 -50q0 -35 17.5 -53.5t57.5 -18.5q38 0 61 22t36 48zM382 362q12 -27 35 -48.5t61 -21.5q40 0 57.5 18.5t17.5 53.5q0 31 -18.5 50t-56.5 19q-35 0 -57 -19.5t-39 -51.5z" />
<glyph unicode="&#x222b;" horiz-adv-x="351" d="M65 -83v90q24 1 37 5t19.5 12.5t7.5 21.5t1 33v615q0 67 30 95t96 28h29v-92q-22 0 -35 -3t-19.5 -11t-8.5 -22t-2 -35v-615q0 -66 -30 -94t-96 -28h-29z" />
<glyph unicode="&#x2248;" horiz-adv-x="561" d="M66 210zM66 500q62 68 126 68q30 0 53 -8t42.5 -18t37 -18t37.5 -8q14 0 29 10.5t30 33.5l74 -82q-59 -69 -129 -69q-26 0 -47 8t-40 17.5t-36.5 17.5t-35.5 8t-34 -8.5t-33 -35.5zM66 301q62 68 126 68q30 0 53 -8t42.5 -18t37 -18t37.5 -8q14 0 29 10.5t30 33.5l74 -82 q-59 -69 -129 -69q-26 0 -47 8t-40 17.5t-36.5 17.5t-35.5 8t-34 -8.5t-33 -35.5z" />
<glyph unicode="&#x2260;" horiz-adv-x="653" d="M54 0l136 220h-124v105h188l59 95h-247v105h312l132 214h85l-133 -214h125v-105h-190l-58 -95h248v-105h-313l-136 -220h-84z" />
<glyph unicode="&#x2264;" horiz-adv-x="510" d="M76 300q-20 12 -29.5 30t-9.5 38q0 21 10 40t29 30l397 236v-153l-283 -152l283 -152v-153zM37 -90v105h436v-105h-436z" />
<glyph unicode="&#x2265;" horiz-adv-x="510" d="M37 -90v105h436v-105h-436zM37 64v153l283 152l-283 152v153l397 -236q19 -11 29 -30t10 -40q0 -20 -9.5 -38t-29.5 -30z" />
<glyph unicode="&#x25ca;" horiz-adv-x="514" d="M204 675q9 15 23 22.5t29 7.5t30 -8t24 -22l181 -305l-181 -305q-9 -14 -24 -22t-30 -8t-29 7.5t-23 22.5l-181 305zM257 152l117 218l-117 218l-117 -218z" />
<glyph unicode="&#x25fc;" horiz-adv-x="740" d="M0 740h740v-740h-740v740z" />
<glyph unicode="&#xfb01;" horiz-adv-x="1280" d="M66 0zM66 0v739h911v-145h-766v-97h587v-135h-587v-362h-145zM1061 0v739h145v-739h-145z" />
<glyph unicode="&#xfb02;" horiz-adv-x="1738" d="M66 0zM66 0v739h911v-145h-766v-97h587v-135h-587v-362h-145zM1053 0v739h145v-594h515v-145h-660z" />
<glyph horiz-adv-x="1738" d="M0 0z" />
</font>
</defs>
</svg>
